<?xml version="1.0" encoding="UTF-8" standalone="no"?>
<!-- Created with Inkscape (http://www.inkscape.org/) -->

<svg
   version="1.1"
   id="svg2"
   width="919.57111"
   height="589.79169"
   viewBox="0 0 919.5711 589.79168"
   sodipodi:docname="hero-img-slider.svg"
   xml:space="preserve"
   inkscape:version="1.2.2 (b0a8486541, 2022-12-01)"
   xmlns:inkscape="http://www.inkscape.org/namespaces/inkscape"
   xmlns:sodipodi="http://sodipodi.sourceforge.net/DTD/sodipodi-0.dtd"
   xmlns="http://www.w3.org/2000/svg"
   xmlns:svg="http://www.w3.org/2000/svg"><defs
     id="defs6"><clipPath
       clipPathUnits="userSpaceOnUse"
       id="clipPath24"><path
         d="M 0,500 H 750 V 0 H 0 Z"
         id="path22" /></clipPath><clipPath
       clipPathUnits="userSpaceOnUse"
       id="clipPath134"><path
         d="m 236.471,114.034 h 326.96 V 26.8135 h -326.96 z"
         id="path132" /></clipPath><clipPath
       clipPathUnits="userSpaceOnUse"
       id="clipPath182"><path
         d="M 0,500 H 750 V 0 H 0 Z"
         id="path180" /></clipPath><clipPath
       clipPathUnits="userSpaceOnUse"
       id="clipPath206"><path
         d="m 199.811,147.814 h 227.12 V 27.0635 h -227.12 z"
         id="path204" /></clipPath><clipPath
       clipPathUnits="userSpaceOnUse"
       id="clipPath230"><path
         d="M 56.0883,87.5233 H 164.131 V 68.589 H 56.0883 Z"
         id="path228" /></clipPath><clipPath
       clipPathUnits="userSpaceOnUse"
       id="clipPath250"><path
         d="m 141.285,87.4613 h 23.697 v -25.194 h -23.697 z"
         id="path248" /></clipPath><clipPath
       clipPathUnits="userSpaceOnUse"
       id="clipPath266"><path
         d="M 61.7543,76.7121 H 163.945 V 74.4302 H 61.7543 Z"
         id="path264" /></clipPath><clipPath
       clipPathUnits="userSpaceOnUse"
       id="clipPath280"><path
         d="M 61.7543,81.8512 H 163.945 V 79.5694 H 61.7543 Z"
         id="path278" /></clipPath><clipPath
       clipPathUnits="userSpaceOnUse"
       id="clipPath294"><path
         d="M 61.7543,70.1746 H 163.945 V 67.8928 H 61.7543 Z"
         id="path292" /></clipPath><clipPath
       clipPathUnits="userSpaceOnUse"
       id="clipPath320"><path
         d="M 68.0031,56.0373 H 176.046 V 37.103 H 68.0031 Z"
         id="path318" /></clipPath><clipPath
       clipPathUnits="userSpaceOnUse"
       id="clipPath340"><path
         d="m 153.2,55.9753 h 23.697 V 30.7813 H 153.2 Z"
         id="path338" /></clipPath><clipPath
       clipPathUnits="userSpaceOnUse"
       id="clipPath356"><path
         d="M 73.6692,45.226 H 175.86 V 42.9442 H 73.6692 Z"
         id="path354" /></clipPath><clipPath
       clipPathUnits="userSpaceOnUse"
       id="clipPath370"><path
         d="M 73.6692,50.3652 H 175.86 V 48.0833 H 73.6692 Z"
         id="path368" /></clipPath><clipPath
       clipPathUnits="userSpaceOnUse"
       id="clipPath384"><path
         d="M 73.6692,38.6886 H 175.86 V 36.4067 H 73.6692 Z"
         id="path382" /></clipPath><clipPath
       clipPathUnits="userSpaceOnUse"
       id="clipPath406"><path
         d="M 38.2306,26.6435 H 717.851 v -27.87 H 38.2306 Z"
         id="path404" /></clipPath><clipPath
       clipPathUnits="userSpaceOnUse"
       id="clipPath508"><path
         d="M 0,500 H 750 V 0 H 0 Z"
         id="path506" /></clipPath><clipPath
       clipPathUnits="userSpaceOnUse"
       id="clipPath576"><path
         d="M 0,500 H 750 V 0 H 0 Z"
         id="path574" /></clipPath><clipPath
       clipPathUnits="userSpaceOnUse"
       id="clipPath596"><path
         d="M 0,500 H 750 V 0 H 0 Z"
         id="path594" /></clipPath><clipPath
       clipPathUnits="userSpaceOnUse"
       id="clipPath730"><path
         d="M 0,500 H 750 V 0 H 0 Z"
         id="path728" /></clipPath><clipPath
       clipPathUnits="userSpaceOnUse"
       id="clipPath752"><path
         d="M 0,500 H 750 V 0 H 0 Z"
         id="path750" /></clipPath><clipPath
       clipPathUnits="userSpaceOnUse"
       id="clipPath848"><path
         d="m 607.256,95.7933 h 16.751 V 66.7467 h -16.751 z"
         id="path846" /></clipPath><clipPath
       clipPathUnits="userSpaceOnUse"
       id="clipPath872"><path
         d="m 632.76,109.922 h 38.923 V 68.1616 H 632.76 Z"
         id="path870" /></clipPath><clipPath
       clipPathUnits="userSpaceOnUse"
       id="clipPath896"><path
         d="m 616.867,134.866 h 29.119 V 67.0396 h -29.119 z"
         id="path894" /></clipPath></defs><sodipodi:namedview
     id="namedview4"
     pagecolor="#ffffff"
     bordercolor="#000000"
     borderopacity="0.25"
     inkscape:showpageshadow="2"
     inkscape:pageopacity="0.0"
     inkscape:pagecheckerboard="0"
     inkscape:deskcolor="#d1d1d1"
     showgrid="false"
     inkscape:zoom="0.70710678"
     inkscape:cx="579.82756"
     inkscape:cy="299.10617"
     inkscape:window-width="1846"
     inkscape:window-height="1016"
     inkscape:window-x="1994"
     inkscape:window-y="27"
     inkscape:window-maximized="1"
     inkscape:current-layer="g10"><inkscape:page
       x="0"
       y="0"
       id="page8"
       width="919.57111"
       height="589.79169" /></sodipodi:namedview><g
     id="g10"
     inkscape:groupmode="layer"
     inkscape:label="Page 1"
     transform="matrix(1.3333333,0,0,-1.3333333,-37.562451,588.1561)"><text
       xml:space="preserve"
       transform="scale(1,-1)"
       style="font-variant:normal;font-weight:900;font-stretch:normal;font-size:25.4399px;font-family:'Montserrat Black';-inkscape-font-specification:Montserrat-Black;writing-mode:lr-tb;fill:#ffa24d;fill-opacity:1;fill-rule:nonzero;stroke:none"
       id="text1594"
       x="307.7923"
       y="-188.14014"><tspan
         x="307.7923 323.56512 334.75861"
         y="-188.14014"
         sodipodi:role="line"
         id="tspan1592">&lt;/&gt;</tspan></text><g
       id="g1738"
       transform="translate(-4.4324247,4.0072169)"><g
         id="g1736"
         clip-path="url(#clipPath24)"><g
           id="g1598"
           transform="translate(466.0586,278.2109)"><path
             d="m 0,0 c -1.492,-32.665 -33.602,-57.694 -57.653,-59.206 -31.778,-1.997 -54.489,26.661 -57.653,59.206 -2.741,28.195 7.272,27.775 14.729,39.527 9.036,14.24 25.876,22.108 42.924,22.108 C -25.812,61.635 2.007,43.948 0,0"
             style="fill:#1a1a1a;fill-opacity:1;fill-rule:nonzero;stroke:none"
             id="path1596" /></g><path
           d="m 430.749,166.111 h -44.687 v 55.943 h 44.687 z"
           style="fill:#dba27a;fill-opacity:1;fill-rule:nonzero;stroke:none"
           id="path1600" /><g
           id="g1604"
           transform="matrix(0.53694358,0,0,1,456.66892,254.6851)"
           style="fill:#dba27a;fill-opacity:1"><path
             d="M 0,0 C 7.971,12.096 18.112,12.626 22.348,-1.679 26.582,-15.986 12.604,-27.757 1.225,-23.413 -10.156,-19.069 0,0 0,0"
             style="fill:#dba27a;fill-opacity:1;fill-rule:nonzero;stroke:none"
             id="path1602" /></g><g
           id="g1608"
           transform="matrix(0.53694358,0,0,1,461.72113,254.3691)"
           style="fill:#b77753;fill-opacity:1"><path
             d="m 0,0 c 5.339,0.977 8.075,-14.931 -3.634,-15.456 l 2.408,5.551 -2.259,4.617 z"
             style="fill:#b77753;fill-opacity:1;fill-rule:nonzero;stroke:none"
             id="path1606" /></g><g
           id="g1612"
           transform="matrix(0.53694358,0,0,1,458.8298,236.7314)"><path
             d="m 0,0 c 6.825,7.275 1.899,12.35 1.899,12.35 0,0 6.497,13.323 9.1,3.112"
             style="fill:none;stroke:#a05a2c;stroke-width:0.5;stroke-linecap:butt;stroke-linejoin:miter;stroke-miterlimit:10;stroke-dasharray:none;stroke-opacity:1"
             id="path1610" /></g><g
           id="g1616"
           transform="matrix(0.52350043,0,0,1,359.82545,254.6851)"
           style="fill:#dba27a;fill-opacity:1"><path
             d="m 0,0 c -7.972,12.096 -18.113,12.626 -22.348,-1.679 -4.235,-14.307 9.743,-26.078 21.123,-21.734 C 10.155,-19.069 0,0 0,0"
             style="fill:#dba27a;fill-opacity:1;fill-rule:nonzero;stroke:none"
             id="path1614" /></g><g
           id="g1620"
           transform="matrix(0.52350043,0,0,1,354.89947,254.3691)"
           style="fill:#b77753;fill-opacity:1"><path
             d="m 0,0 c -5.339,0.977 -8.076,-14.931 3.634,-15.456 l -2.408,5.551 2.259,4.617 z"
             style="fill:#b77753;fill-opacity:1;fill-rule:nonzero;stroke:none"
             id="path1618" /></g><g
           id="g1624"
           transform="matrix(0.52350043,0,0,1,357.71867,236.7314)"
           style="stroke:#a05a2c"><path
             d="m 0,0 c -6.826,7.275 -1.9,12.35 -1.9,12.35 0,0 -6.496,13.323 -9.1,3.112"
             style="fill:none;stroke:#a05a2c;stroke-width:0.5;stroke-linecap:butt;stroke-linejoin:miter;stroke-miterlimit:10;stroke-dasharray:none;stroke-opacity:1"
             id="path1622" /></g><g
           id="g1628"
           transform="translate(430.749,220.8174)"><path
             d="M 0,0 V -20.812 C -16.059,-42.571 -44.687,-35.496 -44.687,-35.496 L -44.186,0 Z"
             style="fill:#b77753;fill-opacity:1;fill-rule:nonzero;stroke:none"
             id="path1626" /></g><g
           id="g1632"
           transform="translate(408.4053,196.9717)"
           style="fill:#dba27a;fill-opacity:1"><path
             d="m 0,0 v 0 c -26.676,0 -48.3,21.624 -48.3,48.3 v 35.296 c 0,18.017 14.605,32.622 32.622,32.622 h 31.355 c 18.017,0 32.623,-14.605 32.623,-32.622 V 48.3 C 48.3,21.624 26.676,0 0,0"
             style="fill:#dba27a;fill-opacity:1;fill-rule:nonzero;stroke:none"
             id="path1630" /></g><g
           id="g1636"
           transform="translate(415.8369,238.957)"
           style="stroke:#a05a2c"><path
             d="m 0,0 c 0,-4.104 -3.327,-7.431 -7.432,-7.431 -4.103,0 -7.43,3.327 -7.43,7.431"
             style="fill:none;stroke:#a05a2c;stroke-width:1;stroke-linecap:butt;stroke-linejoin:miter;stroke-miterlimit:10;stroke-dasharray:none;stroke-opacity:1"
             id="path1634" /></g><g
           id="g1640"
           transform="translate(365.208,311.0303)"
           style="fill:#1a1a1a"><path
             d="M 0,0 C 0,0 -8.46,14.022 2.136,26.387 2.136,26.387 9.749,12.291 0,0"
             style="fill:#1a1a1a;fill-opacity:1;fill-rule:nonzero;stroke:none"
             id="path1638" /></g><g
           id="g1644"
           transform="translate(369.5054,314.3604)"><path
             d="m 0,0 c 0,0 -11.78,-11.377 -26.198,-3.808 0,0 12.041,10.567 26.198,3.808"
             style="fill:#1a1a1a;fill-opacity:1;fill-rule:nonzero;stroke:none"
             id="path1642" /></g><g
           id="g1648"
           transform="translate(389.2246,256.2939)"
           style="fill:#1a1a1a"><path
             d="m 0,0 c 0,-3.994 -1.701,-7.231 -3.799,-7.231 -2.098,0 -3.8,3.237 -3.8,7.231 0,3.994 1.702,7.231 3.8,7.231 C -1.701,7.231 0,3.994 0,0"
             style="fill:#1a1a1a;fill-opacity:1;fill-rule:nonzero;stroke:none"
             id="path1646" /></g><g
           id="g1656"
           transform="translate(435.1846,256.2939)"
           style="fill:#1a1a1a"><path
             d="m 0,0 c 0,-3.994 -1.701,-7.231 -3.8,-7.231 -2.098,0 -3.799,3.237 -3.799,7.231 0,3.994 1.701,7.231 3.799,7.231 C -1.701,7.231 0,3.994 0,0"
             style="fill:#1a1a1a;fill-opacity:1;fill-rule:nonzero;stroke:none"
             id="path1654" /></g><g
           id="g1662"
           transform="translate(366.0913,299.4053)"
           style="fill:#1a1a1a" /><g
           id="g1666"
           transform="translate(364.918,329.6382)"
           style="fill:#1a1a1a"><path
             d="m 0,-30 c 0,0 2.8465925,3.774285 7.633958,7.850051 4.243247,3.612526 10.011173,7.461896 16.673042,9.129948 14.177,3.5500002 29.86,-13.888999 29.86,-13.888999 0,0 -36.326,5.178999 -54.167,-3.091"
             style="fill:#1a1a1a;fill-opacity:1;fill-rule:nonzero;stroke:none"
             id="path1664"
             sodipodi:nodetypes="csccc" /></g><g
           id="g1670"
           transform="translate(360.1792,282.7451)"
           style="fill:#1a1a1a"><path
             d="m 0,0 c 0,0 3.417,-24.925 0,-40.137 0,0 -4.994,38.65 0,40.137"
             style="fill:#1a1a1a;fill-opacity:1;fill-rule:nonzero;stroke:none"
             id="path1668" /></g><g
           id="g1674"
           transform="translate(456.61987,282.94687)"
           style="fill:#1a1a1a"><path
             d="m 0,0 c 0,0 -3.416,-24.925 0,-40.137 0,0 4.994,38.65 0,40.137"
             style="fill:#1a1a1a;fill-opacity:1;fill-rule:nonzero;stroke:none"
             id="path1672" /></g><g
           id="g1678"
           transform="translate(394.084,284.6904)"
           style="fill:#1a1a1a"><path
             d="m 0,0 c -5.271,2.523 -14.645,5.292 -23.329,-0.894 -1.457,-1.038 -0.903,-3.328 0.859,-3.632 2.786,-0.481 6.783,-0.978 11.308,-0.949 3.517,0.022 7.68,0.888 10.788,1.687 C 1.453,-3.318 1.702,-0.814 0,0"
             style="fill:#1a1a1a;fill-opacity:1;fill-rule:nonzero;stroke:none"
             id="path1676" /></g><g
           id="g1682"
           transform="translate(444.9795,284.6904)"><path
             d="m 0,0 c -5.271,2.523 -14.645,5.292 -23.329,-0.894 -1.456,-1.038 -0.902,-3.328 0.859,-3.632 2.786,-0.481 6.784,-0.978 11.309,-0.949 3.516,0.022 7.679,0.888 10.787,1.687 C 1.453,-3.318 1.702,-0.814 0,0"
             style="fill:#1a1a1a;fill-opacity:1;fill-rule:nonzero;stroke:none"
             id="path1680" /></g><g
           id="g1686"
           transform="translate(424.7432,221.5117)"><path
             d="M 0,0 C -0.501,-0.894 -1.093,-1.829 -1.903,-2.76 -4.485,-5.868 -8.87,-8.854 -16.381,-8.991 l -0.012,-0.033 -0.551,0.01 -0.021,0.045 c -7.043,0.139 -11.383,2.789 -14,5.714 -1.014,1.099 -1.783,2.26 -2.336,3.306 -1.251,2.401 -1.577,4.29 -1.577,4.29 L 1.593,4.272 C 1.593,4.272 1.292,2.385 0,0"
             style="fill:#e23c5e;fill-opacity:1;fill-rule:nonzero;stroke:none"
             id="path1684" /></g><g
           id="g1690"
           transform="translate(424.7432,221.5117)"><path
             d="m 0,0 c -0.501,-0.894 -1.093,-1.829 -1.903,-2.76 -8.371,3.678 -18.441,4.448 -29.062,-0.495 -1.014,1.099 -1.783,2.26 -2.336,3.306 -1.251,2.401 -1.577,4.29 -1.577,4.29 L 1.593,4.272 C 1.593,4.272 1.292,2.385 0,0"
             style="fill:#333333;fill-opacity:1;fill-rule:nonzero;stroke:none"
             id="path1688" /></g><g
           id="g1694"
           transform="translate(563.4307,27.1533)"><path
             d="m 0,0 -326.96,-0.34 c 0,0 6.1,12.76 14.88,29.67 0.65,1.25 1.32,2.53 2,3.83 11.99,22.87 28.12,51.76 40.71,67.43 14.5,18.04 48.76,30.9 72.03,37.931 13.56,4.089 23.38,6.199 23.38,6.199 h 37.56 c 0,0 8.82,-1.89 21.28,-5.579 23.25,-6.87 58.01,-20.971 74.13,-38.551 3.54,-3.86 6.87,-8.529 9.99,-13.71 C -11.16,53.91 0,0 0,0"
             style="fill:#ffa24d;fill-opacity:1;fill-rule:nonzero;stroke:none"
             id="path1692" /></g><g
           id="g1706"><g
             id="g1696" /><g
             id="g1704"><g
               clip-path="url(#clipPath134)"
               opacity="0.5"
               id="g1702"><g
                 transform="translate(563.4307,27.1533)"
                 id="g1700"><path
                   d="m 0,0 -326.96,-0.34 c 0,0 6.1,12.76 14.88,29.67 163.161,-47.962 249.142,30.639 268.764,51.915 3.168,3.436 7.566,5.504 12.237,5.633 L -31,86.88 C -11.16,53.91 0,0 0,0"
                   style="fill:#f47608;fill-opacity:1;fill-rule:nonzero;stroke:none"
                   id="path1698" /></g></g></g></g><g
           id="g1714"
           transform="translate(448.3105,166.2979)"
           style="fill:#dba27a;fill-opacity:1"><path
             d="m 0,0 c -40.474,-44.53 -82.219,-0.629 -82.219,-0.629 13.561,4.099 23.383,6.209 23.383,6.209 h 37.559 c 0,0 8.819,-1.896 21.277,-5.58"
             style="fill:#dba27a;fill-opacity:1;fill-rule:nonzero;stroke:none"
             id="path1712" /></g><g
           id="g1718"
           transform="translate(319.042,77.5361)"><path
             d="M 0,0 V -50.783"
             style="fill:none;stroke:#f68400;stroke-width:3;stroke-linecap:butt;stroke-linejoin:miter;stroke-miterlimit:10;stroke-dasharray:none;stroke-opacity:1"
             id="path1716" /></g><g
           id="g1722"
           transform="translate(319.042,45.1689)"><path
             d="M 0,0 -13.636,17.386"
             style="fill:none;stroke:#f68400;stroke-width:3;stroke-linecap:butt;stroke-linejoin:miter;stroke-miterlimit:10;stroke-dasharray:none;stroke-opacity:1"
             id="path1720" /></g><g
           id="g1726"
           transform="translate(496.8437,77.5361)"><path
             d="M 0,0 V -50.783"
             style="fill:none;stroke:#f68400;stroke-width:3;stroke-linecap:butt;stroke-linejoin:miter;stroke-miterlimit:10;stroke-dasharray:none;stroke-opacity:1"
             id="path1724" /></g><g
           id="g1730"
           transform="translate(496.8437,45.1689)"><path
             d="M 0,0 12.107,15.437"
             style="fill:none;stroke:#f68400;stroke-width:3;stroke-linecap:butt;stroke-linejoin:miter;stroke-miterlimit:10;stroke-dasharray:none;stroke-opacity:1"
             id="path1728" /></g><g
           id="g1734"
           transform="translate(364.1533,146.3428)"><path
             d="M 0,0 C 0,0 50.184,-34.271 84.157,1.664"
             style="fill:none;stroke:#f68400;stroke-width:3;stroke-linecap:butt;stroke-linejoin:miter;stroke-miterlimit:10;stroke-dasharray:none;stroke-opacity:1"
             id="path1732" /></g><text
           xml:space="preserve"
           style="font-weight:900;font-size:20px;font-family:Nunito;-inkscape-font-specification:'Nunito Heavy';text-align:center;text-anchor:middle;fill:none;fill-opacity:1;stroke:#a05a2c;stroke-width:0.86475;stroke-opacity:1"
           x="491.30185"
           y="41.563866"
           id="text17929"
           transform="scale(1,-1)"><tspan
             sodipodi:role="line"
             id="tspan17927"
             style="stroke-width:0.86475"
             x="491.30185"
             y="41.563866">O</tspan></text></g></g><g
       id="g2008"
       transform="translate(-4.4324247,4.0072169)"><g
         id="g2006"
         clip-path="url(#clipPath182)"><g
           id="g1746"
           transform="translate(426.9307,27.123)"><path
             d="m 0,0 c -0.03,-0.01 -0.07,-0.02 -0.11,-0.02 -0.27,-0.03 -0.55,-0.04 -0.83,-0.04 h -218.99 c -2.91,0 -5.5,1.35 -7.19,3.47 -1.26,1.57 -2.01,3.57 -2.01,5.74 l -0.03,0.1 -34.1,96.351 c -2.61,7.36 2.85,15.089 10.66,15.089 h 142.18 c 4.8,0 9.07,-3.019 10.67,-7.54 L -63,9.33 c 0.04,-0.119 0.06,-0.18 0.06,-0.18 H -0.73 C 4.979,9.15 5.61,0.61 0,0"
             style="fill:#69adbf;fill-opacity:1;fill-rule:nonzero;stroke:none"
             id="path1744" /></g><g
           id="g1750"
           transform="rotate(16.277445,-194.96501,976.85957)"><path
             d="m 0,0 c 3.596,-10.455 -0.47,-21.33 -9.081,-24.291 -8.61,-2.962 -18.505,3.113 -22.1,13.567 -3.595,10.455 0.47,21.33 9.081,24.291 C -13.49,16.528 -3.595,10.454 0,0"
             style="fill:#ffffff;fill-opacity:1;fill-rule:nonzero;stroke:none"
             id="path1748" /></g><g
           id="g1754"
           transform="translate(426.2031,36.2754)"><path
             d="m 0,0 h -62.214 c 0,0 -0.017,0.062 -0.054,0.18 l -36.755,103.821 c -1.602,4.519 -5.87,7.534 -10.667,7.534 h -4.754 c 0,0 10.623,-0.693 13.278,-10.199 2.656,-9.497 38.952,-110.348 38.952,-110.348 l 2.683,-0.198 h 59.314 c 0.288,0 0.568,0.01 0.838,0.036 C 6.346,-8.651 5.743,0 0,0"
             style="fill:#2f7298;fill-opacity:1;fill-rule:nonzero;stroke:none"
             id="path1752" /></g><g
           id="g1766"><g
             id="g1756" /><g
             id="g1764"><g
               clip-path="url(#clipPath206)"
               opacity="0.399994"
               id="g1762"><g
                 transform="translate(426.9307,27.123)"
                 id="g1760"><path
                   d="m 0,0 c -0.03,-0.01 -0.07,-0.02 -0.11,-0.02 -0.27,-0.03 -0.55,-0.04 -0.83,-0.04 h -218.99 c -2.91,0 -5.5,1.35 -7.19,3.47 129.44,-11.12 116.7,117.28 116.7,117.28 4.8,0 9.07,-3.019 10.67,-7.54 L -63,9.33 c 0.04,-0.119 0.06,-0.18 0.06,-0.18 H -1.71 C -1.05,6.12 -0.47,3.07 0,0"
                   style="fill:#2a94a2;fill-opacity:1;fill-rule:nonzero;stroke:none"
                   id="path1758" /></g></g></g></g><g
           id="g1770"
           transform="translate(166.5327,90.6689)"><path
             d="M 0,0 V -3.224 C -5.826,-3.89 -7.251,-8.816 -7.251,-14.813 v -1.983 c 0,-5.997 1.425,-10.924 7.251,-11.591 v -3.207 h -111.39 c -4.57,0 -8.274,3.703 -8.274,8.275 V -8.29 c 0,4.571 3.704,8.29 8.274,8.29 z"
             style="fill:#2f7298;fill-opacity:1;fill-rule:nonzero;stroke:none"
             id="path1768" /></g><g
           id="g1774"
           transform="translate(164.7974,65.583)"><path
             d="M 0,0 C 0.667,-1.58 -0.558,-3.301 -2.262,-3.301 L -108.709,-3.378 V 21.94 L -2.262,21.862 c 0.62,0 1.178,-0.231 1.596,-0.603 0.744,-0.62 1.084,-1.69 0.666,-2.697 -0.883,-2.107 -0.852,-5.036 -0.852,-8.29 V 8.29 C -0.852,5.036 -0.883,2.107 0,0"
             style="fill:#ffffff;fill-opacity:1;fill-rule:nonzero;stroke:none"
             id="path1772" /></g><g
           id="g1786"><g
             id="g1776" /><g
             id="g1784"><g
               clip-path="url(#clipPath230)"
               opacity="0.399994"
               id="g1782"><g
                 transform="translate(164.1313,86.8418)"
                 id="g1780"><path
                   d="m 0,0 c -2.045,-0.108 -96.112,-4.974 -102.558,-14.116 -1.751,-2.479 -3.734,-3.858 -5.485,-4.137 V 0.682 L -1.596,0.604 C -0.976,0.604 -0.418,0.372 0,0"
                   style="fill:#8ad6e7;fill-opacity:1;fill-rule:nonzero;stroke:none"
                   id="path1778" /></g></g></g></g><g
           id="g1790"
           transform="translate(61.5732,59.0693)"><path
             d="m 0,0 h -9.36 c -2.951,0 -5.344,2.393 -5.344,5.344 v 20.904 c 0,2.951 2.393,5.344 5.344,5.344 H 0 Z"
             style="fill:#2f7298;fill-opacity:1;fill-rule:nonzero;stroke:none"
             id="path1788" /></g><g
           id="g1802"><g
             id="g1792" /><g
             id="g1800"><g
               clip-path="url(#clipPath250)"
               opacity="0.399994"
               id="g1798"><g
                 transform="translate(164.7974,65.583)"
                 id="g1796"><path
                   d="m 0,0 c 0.667,-1.58 -0.558,-3.3 -2.262,-3.3 l -21.251,-0.015 c 16.882,1.919 15.827,15.789 15.827,15.789 0.186,0.666 -13.34,8.8 -13.107,9.404 l 18.531,-0.016 c 0.62,0 1.178,-0.231 1.596,-0.603 C 0.078,20.639 0.418,19.569 0,18.562 -0.883,16.455 -0.852,13.526 -0.852,10.273 V 8.29 C -0.852,5.036 -0.883,2.107 0,0"
                   style="fill:#8ad6e7;fill-opacity:1;fill-rule:nonzero;stroke:none"
                   id="path1794" /></g></g></g></g><g
           id="g1812"><g
             id="g1804" /><g
             id="g1810"><g
               clip-path="url(#clipPath266)"
               opacity="0.399994"
               id="g1808"><path
                 d="M 163.945,74.431 H 61.754 v 2.281 h 102.191 z"
                 style="fill:#8ad6e7;fill-opacity:1;fill-rule:nonzero;stroke:none"
                 id="path1806" /></g></g></g><g
           id="g1822"><g
             id="g1814" /><g
             id="g1820"><g
               clip-path="url(#clipPath280)"
               opacity="0.399994"
               id="g1818"><path
                 d="M 163.945,79.569 H 61.754 v 2.282 h 102.191 z"
                 style="fill:#8ad6e7;fill-opacity:1;fill-rule:nonzero;stroke:none"
                 id="path1816" /></g></g></g><g
           id="g1832"><g
             id="g1824" /><g
             id="g1830"><g
               clip-path="url(#clipPath294)"
               opacity="0.399994"
               id="g1828"><path
                 d="M 163.945,67.893 H 61.754 v 2.282 h 102.191 z"
                 style="fill:#8ad6e7;fill-opacity:1;fill-rule:nonzero;stroke:none"
                 id="path1826" /></g></g></g><g
           id="g1836"
           transform="translate(131.0293,66.9326)"><path
             d="M 0,0 -5.434,5.419 -10.867,0 V 14.919 H 0 Z"
             style="fill:#e23c5e;fill-opacity:1;fill-rule:nonzero;stroke:none"
             id="path1834" /></g><g
           id="g1840"
           transform="translate(178.4478,59.1826)"><path
             d="m 0,0 v -3.223 c -5.826,-0.666 -7.251,-5.593 -7.251,-11.59 v -1.983 c 0,-5.996 1.425,-10.924 7.251,-11.59 v -3.208 h -111.39 c -4.57,0 -8.274,3.704 -8.274,8.275 v 15.03 c 0,4.57 3.704,8.289 8.274,8.289 z"
             style="fill:#e23c5e;fill-opacity:1;fill-rule:nonzero;stroke:none"
             id="path1838" /></g><g
           id="g1844"
           transform="translate(176.7124,34.0967)"><path
             d="M 0,0 C 0.667,-1.58 -0.558,-3.3 -2.262,-3.3 L -108.709,-3.377 V 21.94 L -2.262,21.863 c 0.619,0 1.178,-0.232 1.596,-0.604 C 0.078,20.639 0.418,19.57 0,18.562 -0.883,16.455 -0.852,13.527 -0.852,10.273 V 8.29 C -0.852,5.036 -0.883,2.107 0,0"
             style="fill:#ffffff;fill-opacity:1;fill-rule:nonzero;stroke:none"
             id="path1842" /></g><g
           id="g1856"><g
             id="g1846" /><g
             id="g1854"><g
               clip-path="url(#clipPath320)"
               opacity="0.399994"
               id="g1852"><g
                 transform="translate(176.0464,55.3555)"
                 id="g1850"><path
                   d="m 0,0 c -2.045,-0.108 -96.112,-4.974 -102.558,-14.115 -1.751,-2.48 -3.734,-3.859 -5.485,-4.138 V 0.682 L -1.596,0.604 C -0.977,0.604 -0.418,0.372 0,0"
                   style="fill:#8ad6e7;fill-opacity:1;fill-rule:nonzero;stroke:none"
                   id="path1848" /></g></g></g></g><g
           id="g1860"
           transform="translate(73.4878,27.583)"><path
             d="m 0,0 h -9.359 c -2.952,0 -5.344,2.393 -5.344,5.344 v 20.905 c 0,2.951 2.392,5.344 5.344,5.344 H 0 Z"
             style="fill:#e23c5e;fill-opacity:1;fill-rule:nonzero;stroke:none"
             id="path1858" /></g><g
           id="g1872"><g
             id="g1862" /><g
             id="g1870"><g
               clip-path="url(#clipPath340)"
               opacity="0.399994"
               id="g1868"><g
                 transform="translate(176.7124,34.0967)"
                 id="g1866"><path
                   d="m 0,0 c 0.667,-1.58 -0.558,-3.3 -2.262,-3.3 l -21.251,-0.015 c 16.882,1.919 15.827,15.789 15.827,15.789 0.186,0.666 -13.34,8.8 -13.107,9.405 l 18.531,-0.016 c 0.619,0 1.178,-0.232 1.596,-0.604 C 0.078,20.639 0.418,19.57 0,18.562 -0.883,16.455 -0.852,13.527 -0.852,10.273 V 8.29 C -0.852,5.036 -0.883,2.107 0,0"
                   style="fill:#8ad6e7;fill-opacity:1;fill-rule:nonzero;stroke:none"
                   id="path1864" /></g></g></g></g><g
           id="g1882"><g
             id="g1874" /><g
             id="g1880"><g
               clip-path="url(#clipPath356)"
               opacity="0.399994"
               id="g1878"><path
                 d="M 175.86,42.944 H 73.669 v 2.281 H 175.86 Z"
                 style="fill:#8ad6e7;fill-opacity:1;fill-rule:nonzero;stroke:none"
                 id="path1876" /></g></g></g><g
           id="g1892"><g
             id="g1884" /><g
             id="g1890"><g
               clip-path="url(#clipPath370)"
               opacity="0.399994"
               id="g1888"><path
                 d="M 175.86,48.083 H 73.669 v 2.282 H 175.86 Z"
                 style="fill:#8ad6e7;fill-opacity:1;fill-rule:nonzero;stroke:none"
                 id="path1886" /></g></g></g><g
           id="g1902"><g
             id="g1894" /><g
             id="g1900"><g
               clip-path="url(#clipPath384)"
               opacity="0.399994"
               id="g1898"><path
                 d="M 175.86,36.406 H 73.669 v 2.282 H 175.86 Z"
                 style="fill:#8ad6e7;fill-opacity:1;fill-rule:nonzero;stroke:none"
                 id="path1896" /></g></g></g><g
           id="g1906"
           transform="translate(164.6816,33.4609)"><path
             d="M 0,0 -5.741,5.726 -11.482,0 V 15.764 H 0 Z"
             style="fill:#e23c5e;fill-opacity:1;fill-rule:nonzero;stroke:none"
             id="path1904" /></g><g
           id="g1910"
           transform="translate(717.8506,13.8633)"><path
             d="m 0,0 v -2.31 c 0,-7.06 -5.73,-12.78 -12.79,-12.78 h -654.04 c -5.95,0 -10.95,4.061 -12.38,9.55 0,0.011 0,0.02 -0.01,0.03 -0.26,1.031 -0.4,2.1 -0.4,3.2 V 0 c 0,7.061 5.72,12.78 12.79,12.78 H -12.79 C -5.73,12.78 0,7.061 0,0"
             style="fill:#3f537e;fill-opacity:1;fill-rule:nonzero;stroke:none"
             id="path1908" /></g><g
           id="g1922"><g
             id="g1912" /><g
             id="g1920"><g
               clip-path="url(#clipPath406)"
               opacity="0.5"
               id="g1918"><g
                 transform="translate(717.8506,13.8633)"
                 id="g1916"><path
                   d="m 0,0 v -2.31 c 0,-7.06 -5.73,-12.78 -12.79,-12.78 h -654.04 c -5.95,0 -10.95,4.061 -12.38,9.55 0,0.011 0,0.02 -0.01,0.03 -0.27,2.05 -0.4,3.2 -0.4,3.2 366.755,-12.78 666.83,15.09 666.83,15.09 C -5.73,12.78 0,7.061 0,0"
                   style="fill:#27273d;fill-opacity:1;fill-rule:nonzero;stroke:none"
                   id="path1914" /></g></g></g></g><g
           id="g1926"
           transform="translate(684.2949,356.2559)"><path
             d="m 0,0 c -4.558,0 -8.253,3.694 -8.253,8.253 0,4.558 3.695,8.253 8.253,8.253 4.559,0 8.253,-3.695 8.253,-8.253 C 8.253,3.694 4.559,0 0,0 m 17.245,8.014 c 0,0.083 0.01,0.155 0.01,0.239 0,0.083 -0.01,0.156 -0.01,0.229 1.196,0.551 2.403,1.186 3.59,1.956 1.269,0.875 2.561,1.884 3.757,3.039 l -0.26,1.02 c -0.25,1.155 -0.697,2.269 -1.103,3.382 -0.229,0.541 -0.5,1.072 -0.76,1.603 -0.24,0.552 -0.531,1.061 -0.853,1.561 l -0.542,0.895 c -1.634,-0.01 -3.288,-0.218 -4.798,-0.5 -1.362,-0.28 -2.684,-0.686 -3.912,-1.155 l -0.333,0.333 c 0.458,1.239 0.874,2.55 1.145,3.913 0.291,1.51 0.499,3.164 0.51,4.798 l -0.895,0.541 c -0.5,0.323 -1.02,0.614 -1.562,0.854 -0.531,0.26 -1.061,0.53 -1.613,0.759 -1.113,0.406 -2.217,0.854 -3.372,1.103 L 5.225,32.845 C 4.07,31.648 3.061,30.368 2.186,29.088 1.416,27.912 0.781,26.705 0.229,25.498 c -0.073,0 -0.156,0.02 -0.229,0.02 -0.083,0 -0.156,-0.02 -0.239,-0.02 -0.541,1.207 -1.187,2.414 -1.957,3.59 -0.864,1.28 -1.883,2.56 -3.028,3.757 l -1.02,-0.261 c -1.165,-0.249 -2.269,-0.697 -3.382,-1.103 -0.541,-0.229 -1.072,-0.499 -1.613,-0.759 -0.541,-0.24 -1.051,-0.531 -1.562,-0.854 l -0.894,-0.541 c 0.02,-1.634 0.228,-3.288 0.509,-4.798 0.281,-1.363 0.687,-2.674 1.156,-3.913 -0.115,-0.114 -0.23,-0.218 -0.333,-0.333 -1.239,0.469 -2.55,0.875 -3.913,1.155 -1.509,0.282 -3.174,0.49 -4.798,0.5 l -0.552,-0.895 c -0.311,-0.5 -0.603,-1.009 -0.853,-1.561 -0.25,-0.531 -0.52,-1.062 -0.75,-1.603 -0.416,-1.113 -0.853,-2.227 -1.102,-3.382 l -0.261,-1.02 c 1.197,-1.155 2.478,-2.164 3.757,-3.039 1.176,-0.77 2.384,-1.405 3.58,-1.956 0,-0.073 -0.01,-0.146 -0.01,-0.229 0,-0.084 0.01,-0.156 0.01,-0.239 -1.196,-0.541 -2.404,-1.187 -3.58,-1.957 -1.279,-0.864 -2.56,-1.884 -3.757,-3.029 l 0.261,-1.02 c 0.249,-1.155 0.686,-2.268 1.102,-3.382 0.23,-0.541 0.5,-1.072 0.75,-1.613 0.25,-0.541 0.542,-1.051 0.853,-1.551 l 0.552,-0.895 c 1.624,0.011 3.289,0.219 4.798,0.5 1.363,0.281 2.674,0.687 3.913,1.155 0.103,-0.114 0.218,-0.229 0.333,-0.333 -0.469,-1.238 -0.875,-2.55 -1.156,-3.913 -0.281,-1.509 -0.489,-3.174 -0.509,-4.798 l 0.894,-0.551 c 0.511,-0.312 1.021,-0.604 1.562,-0.843 0.541,-0.26 1.072,-0.531 1.613,-0.76 1.113,-0.416 2.217,-0.853 3.382,-1.103 l 1.02,-0.26 c 1.145,1.197 2.164,2.477 3.028,3.757 0.77,1.176 1.416,2.383 1.957,3.59 0.083,-0.01 0.156,-0.021 0.239,-0.021 0.073,0 0.156,0.011 0.229,0.021 0.552,-1.207 1.187,-2.414 1.957,-3.59 0.875,-1.28 1.884,-2.56 3.039,-3.757 l 1.019,0.26 c 1.155,0.25 2.259,0.687 3.372,1.103 0.552,0.229 1.082,0.5 1.613,0.76 0.542,0.239 1.062,0.531 1.562,0.843 l 0.895,0.551 c -0.011,1.624 -0.219,3.289 -0.51,4.798 -0.271,1.363 -0.687,2.675 -1.145,3.913 0.115,0.104 0.219,0.219 0.333,0.333 1.228,-0.468 2.55,-0.874 3.912,-1.155 1.51,-0.281 3.164,-0.489 4.798,-0.5 l 0.542,0.895 c 0.322,0.5 0.613,1.01 0.853,1.551 0.26,0.541 0.531,1.072 0.76,1.613 0.406,1.114 0.853,2.227 1.103,3.382 l 0.26,1.02 c -1.196,1.145 -2.488,2.165 -3.757,3.029 -1.187,0.77 -2.394,1.416 -3.59,1.957"
             style="fill:#ffa24d;fill-opacity:1;fill-rule:nonzero;stroke:none"
             id="path1924" /></g><g
           id="g1930"
           transform="translate(660.6377,351.771)"><path
             d="m 0,0 h -55.688 v -54.842 h 15.464"
             style="fill:none;stroke:#ff7936;stroke-width:1;stroke-linecap:butt;stroke-linejoin:miter;stroke-miterlimit:10;stroke-dasharray:4;stroke-dashoffset:0;stroke-opacity:1"
             id="path1928" /></g><path
           d="M 652.354,262.104 H 621.74 v 5.472 h 30.614 z"
           style="fill:#ffffff;fill-opacity:1;fill-rule:nonzero;stroke:none"
           id="path1932" /><path
           d="M 668.807,251.981 H 621.74 v 5.472 h 47.067 z"
           style="fill:#ffffff;fill-opacity:1;fill-rule:nonzero;stroke:none"
           id="path1934" /><path
           d="m 637.77,241.858 h -16.03 v 5.472 h 16.03 z"
           style="fill:#ffffff;fill-opacity:1;fill-rule:nonzero;stroke:none"
           id="path1936" /><path
           d="m 660.344,241.858 h -16.031 v 5.472 h 16.031 z"
           style="fill:#ffa24d;fill-opacity:1;fill-rule:nonzero;stroke:none"
           id="path1938" /><path
           d="M 689.101,241.858 H 666.08 v 5.472 h 23.021 z"
           style="fill:#ffa24d;fill-opacity:1;fill-rule:nonzero;stroke:none"
           id="path1940" /><path
           d="m 689.101,251.981 h -13.979 v 5.472 h 13.979 z"
           style="fill:#ffa24d;fill-opacity:1;fill-rule:nonzero;stroke:none"
           id="path1942" /><path
           d="m 689.101,262.104 h -30.614 v 5.472 h 30.614 z"
           style="fill:#ffa24d;fill-opacity:1;fill-rule:nonzero;stroke:none"
           id="path1944" /><path
           d="m 699.295,242.024 h 1.021 v 60.984 h -1.021 z"
           style="fill:#ffffff;fill-opacity:1;fill-rule:nonzero;stroke:none"
           id="path1946" /><path
           d="m 653.695,295.142 h -31.481 v 5.626 h 31.481 z"
           style="fill:#ffffff;fill-opacity:1;fill-rule:nonzero;stroke:none"
           id="path1948" /><path
           d="m 670.614,284.732 h -48.4 v 5.626 h 48.4 z"
           style="fill:#ffffff;fill-opacity:1;fill-rule:nonzero;stroke:none"
           id="path1950" /><path
           d="m 638.699,274.323 h -16.485 v 5.626 h 16.485 z"
           style="fill:#ffffff;fill-opacity:1;fill-rule:nonzero;stroke:none"
           id="path1952" /><path
           d="m 661.912,274.323 h -16.485 v 5.626 h 16.485 z"
           style="fill:#ffa24d;fill-opacity:1;fill-rule:nonzero;stroke:none"
           id="path1954" /><path
           d="M 691.482,274.323 H 667.81 v 5.626 h 23.672 z"
           style="fill:#ffa24d;fill-opacity:1;fill-rule:nonzero;stroke:none"
           id="path1956" /><path
           d="m 691.482,284.732 h -14.375 v 5.626 h 14.375 z"
           style="fill:#ffa24d;fill-opacity:1;fill-rule:nonzero;stroke:none"
           id="path1958" /><path
           d="m 691.482,295.142 h -31.481 v 5.626 h 31.481 z"
           style="fill:#ffa24d;fill-opacity:1;fill-rule:nonzero;stroke:none"
           id="path1960" /><path
           d="m 582.705,227.608 h -90.591 v 178.021 h 90.591 z"
           style="fill:#47476d;fill-opacity:1;fill-rule:nonzero;stroke:none"
           id="path1962" /><path
           d="m 570.449,360.543 h -68.016 v 7.224 h 68.016 z"
           style="fill:#ffffff;fill-opacity:1;fill-rule:nonzero;stroke:none"
           id="path1964" /><path
           d="m 547.45,344.547 h -45.017 v 7.224 h 45.017 z"
           style="fill:#ffffff;fill-opacity:1;fill-rule:nonzero;stroke:none"
           id="path1966" /><path
           d="m 570.449,344.547 h -16.313 v 7.224 h 16.313 z"
           style="fill:#ffa24d;fill-opacity:1;fill-rule:nonzero;stroke:none"
           id="path1968" /><path
           d="m 570.449,328.551 h -42.148 v 7.224 h 42.148 z"
           style="fill:#ffa24d;fill-opacity:1;fill-rule:nonzero;stroke:none"
           id="path1970" /><path
           d="m 522.173,328.551 h -19.739 v 7.224 h 19.739 z"
           style="fill:#ffffff;fill-opacity:1;fill-rule:nonzero;stroke:none"
           id="path1972" /><path
           d="m 538.386,312.555 h -35.952 v 7.224 h 35.952 z"
           style="fill:#ffffff;fill-opacity:1;fill-rule:nonzero;stroke:none"
           id="path1974" /><path
           d="m 570.449,312.555 h -26.526 v 7.224 h 26.526 z"
           style="fill:#ffa24d;fill-opacity:1;fill-rule:nonzero;stroke:none"
           id="path1976" /><path
           d="m 570.449,296.559 h -48.276 v 7.224 h 48.276 z"
           style="fill:#ffa24d;fill-opacity:1;fill-rule:nonzero;stroke:none"
           id="path1978" /><path
           d="m 517.027,296.559 h -14.594 v 7.224 h 14.594 z"
           style="fill:#ffffff;fill-opacity:1;fill-rule:nonzero;stroke:none"
           id="path1980" /><path
           d="m 531.62,280.563 h -29.187 v 7.224 h 29.187 z"
           style="fill:#ffffff;fill-opacity:1;fill-rule:nonzero;stroke:none"
           id="path1982" /><path
           d="m 570.449,280.563 h -34.008 v 7.224 h 34.008 z"
           style="fill:#ffa24d;fill-opacity:1;fill-rule:nonzero;stroke:none"
           id="path1984" /><g
           id="g1988"
           transform="translate(568.4404,245.1553)"><path
             d="m 0,0 v -2.032 l -7.444,-2.831 v 1.955 l 5.208,1.892 -5.208,1.908 v 1.939 z"
             style="fill:#ffa24d;fill-opacity:1;fill-rule:nonzero;stroke:none"
             id="path1986" /></g><g
           id="g1992"
           transform="translate(547.2754,247.9863)"><path
             d="M 0,0 V -1.939 L -5.208,-3.847 0,-5.739 v -1.955 l -7.444,2.831 v 2.032 z"
             style="fill:#ffa24d;fill-opacity:1;fill-rule:nonzero;stroke:none"
             id="path1990" /></g><g
           id="g1996"
           transform="translate(556.0762,253.4673)"><path
             d="M 0,0 H 2.329 L -3.2,-15.782 h -2.328 z"
             style="fill:#ffa24d;fill-opacity:1;fill-rule:nonzero;stroke:none"
             id="path1994" /></g><g
           id="g2000"
           transform="translate(534.2588,384.0845)"><path
             d="m 0,0 v -2.664 l -9.757,-3.71 v 2.562 l 6.825,2.48 -6.825,2.5 V 3.71 Z"
             style="fill:#ffa24d;fill-opacity:1;fill-rule:nonzero;stroke:none"
             id="path1998" /></g><g
           id="g2004"
           transform="translate(516.3174,387.7949)"><path
             d="M 0,0 V -2.542 L -6.825,-5.042 0,-7.522 v -2.562 l -9.756,3.709 v 2.665 z"
             style="fill:#ffa24d;fill-opacity:1;fill-rule:nonzero;stroke:none"
             id="path2002" /></g></g></g><text
       xml:space="preserve"
       transform="scale(1,-1)"
       style="font-variant:normal;font-weight:900;font-stretch:normal;font-size:18.4267px;font-family:'Montserrat Black';-inkscape-font-specification:Montserrat-Black;writing-mode:lr-tb;fill:#ffffff;fill-opacity:1;fill-rule:nonzero;stroke:none"
       id="text2012"
       x="488.2691"
       y="-424.14078"><tspan
         sodipodi:role="line"
         id="tspan2010"
         x="488.2691"
         y="-424.14078">PROJECTS</tspan></text><g
       id="g2072"
       transform="translate(-4.4324247,4.0072169)"><g
         id="g2070"
         clip-path="url(#clipPath508)"><g
           id="g2016"
           transform="translate(63.3984,192.6191)"><path
             d="m 0,0 c -7.948,-3.545 -17.297,0.037 -20.842,7.985 -2.108,4.727 -1.694,9.95 0.66,14.149 0.015,0.029 0.033,0.062 0.052,0.096 1.605,2.824 4.087,5.176 7.274,6.597 0.596,0.266 1.204,0.492 1.814,0.676 0.064,0.022 0.128,0.042 0.193,0.06 3.157,0.925 6.432,0.809 9.409,-0.186 0.012,-10e-4 0.024,-0.005 0.036,-0.01 2.55,-0.858 4.877,-2.363 6.717,-4.409 1.076,-1.192 1.984,-2.573 2.672,-4.116 0.428,-0.96 0.75,-1.939 0.974,-2.925 C 10.601,10.722 6.988,3.116 0,0 m 9.52,30.636 c -1.881,1.843 -4.053,3.335 -6.407,4.417 -0.042,0.022 -0.086,0.042 -0.129,0.06 -3.318,1.504 -6.983,2.216 -10.683,2.012 -2.531,-0.134 -5.077,-0.704 -7.537,-1.737 -0.152,-0.065 -0.307,-0.131 -0.458,-0.199 -4.411,-1.966 -7.891,-5.174 -10.207,-9.033 -3.704,-6.155 -4.446,-13.962 -1.304,-21.009 5.109,-11.455 18.587,-16.619 30.042,-11.509 10.501,4.682 15.715,16.396 12.577,27.138 -0.285,0.98 -0.641,1.949 -1.066,2.904 -1.196,2.679 -2.848,5.016 -4.828,6.956"
             style="fill:#646491;fill-opacity:1;fill-rule:nonzero;stroke:none"
             id="path2014" /></g><g
           id="g2020"
           transform="translate(66.5112,227.6719)"><path
             d="m 0,0 c 2.354,-1.082 4.526,-2.573 6.407,-4.417 1.98,-1.939 3.633,-4.276 4.828,-6.956 0.426,-0.955 0.782,-1.924 1.066,-2.903 l -6.454,-2.86 c -0.224,0.987 -0.547,1.965 -0.974,2.925 -0.688,1.543 -1.597,2.924 -2.672,4.116 -1.841,2.046 -4.168,3.551 -6.718,4.409 l -0.036,0.01 4.424,5.737"
             style="fill:#ffa24d;fill-opacity:1;fill-rule:nonzero;stroke:none"
             id="path2018" /></g><g
           id="g2024"
           transform="translate(66.5112,227.6719)"><path
             d="M 0,0 -4.517,-5.686"
             style="fill:#ffa24d;fill-opacity:1;fill-rule:nonzero;stroke:none"
             id="path2022" /></g><g
           id="g2028"
           transform="translate(61.9941,221.9863)"><path
             d="M 0,0 -0.036,0.01 C -3.013,1.005 -6.288,1.121 -9.445,0.196 -9.509,0.178 -9.574,0.158 -9.637,0.136 l -4.195,5.885 c 2.46,1.033 5.006,1.603 7.537,1.737 C -2.594,7.962 1.07,7.25 4.388,5.746"
             style="fill:#d53b5e;fill-opacity:1;fill-rule:nonzero;stroke:none"
             id="path2026" /></g><g
           id="g2032"
           transform="translate(58.7842,184.2852)"><path
             d="M 0,0 V -2"
             style="fill:none;stroke:#ff7936;stroke-width:1;stroke-linecap:butt;stroke-linejoin:miter;stroke-miterlimit:10;stroke-dasharray:none;stroke-opacity:1"
             id="path2030" /></g><g
           id="g2036"
           transform="translate(58.7842,178.458)"><path
             d="M 0,0 V -28.706"
             style="fill:none;stroke:#ff7936;stroke-width:1;stroke-linecap:butt;stroke-linejoin:miter;stroke-miterlimit:10;stroke-dasharray:3.827, 3.827;stroke-dashoffset:0;stroke-opacity:1"
             id="path2034" /></g><g
           id="g2040"
           transform="translate(58.7842,147.8379)"><path
             d="M 0,0 V -2 H 2"
             style="fill:none;stroke:#ff7936;stroke-width:1;stroke-linecap:butt;stroke-linejoin:miter;stroke-miterlimit:10;stroke-dasharray:none;stroke-opacity:1"
             id="path2038" /></g><g
           id="g2044"
           transform="translate(64.8994,145.8379)"><path
             d="M 0,0 H 55.561"
             style="fill:none;stroke:#ff7936;stroke-width:1;stroke-linecap:butt;stroke-linejoin:miter;stroke-miterlimit:10;stroke-dasharray:4.116, 4.116;stroke-dashoffset:0;stroke-opacity:1"
             id="path2042" /></g><g
           id="g2048"
           transform="translate(122.5181,145.8379)"><path
             d="M 0,0 H 2 V 2"
             style="fill:none;stroke:#ff7936;stroke-width:1;stroke-linecap:butt;stroke-linejoin:miter;stroke-miterlimit:10;stroke-dasharray:none;stroke-opacity:1"
             id="path2046" /></g><g
           id="g2052"
           transform="translate(124.5181,151.7334)"><path
             d="M 0,0 V 29.21"
             style="fill:none;stroke:#ff7936;stroke-width:1;stroke-linecap:butt;stroke-linejoin:miter;stroke-miterlimit:10;stroke-dasharray:3.895, 3.895;stroke-dashoffset:0;stroke-opacity:1"
             id="path2050" /></g><g
           id="g2056"
           transform="translate(124.5181,182.8916)"><path
             d="M 0,0 V 2"
             style="fill:none;stroke:#ff7936;stroke-width:1;stroke-linecap:butt;stroke-linejoin:miter;stroke-miterlimit:10;stroke-dasharray:none;stroke-opacity:1"
             id="path2054" /></g><path
           d="M 293.375,186.785 H 100.527 v 229.918 h 192.848 z"
           style="fill:#47476d;fill-opacity:1;fill-rule:nonzero;stroke:none"
           id="path2058" /><path
           d="M 293.375,398.722 H 100.527 v 29.181 h 192.848 z"
           style="fill:#646491;fill-opacity:1;fill-rule:nonzero;stroke:none"
           id="path2060" /><g
           id="g2064"
           transform="translate(271.0596,202.5996)"><path
             d="M 0,0 V -1.894 L -6.935,-4.53 v 1.82 l 4.852,1.764 -4.852,1.777 v 1.807 z"
             style="fill:#ffa24d;fill-opacity:1;fill-rule:nonzero;stroke:none"
             id="path2062" /></g><g
           id="g2068"
           transform="translate(251.3433,205.2373)"><path
             d="M 0,0 V -1.807 L -4.852,-3.584 0,-5.348 v -1.82 l -6.935,2.637 v 1.893 z"
             style="fill:#ffa24d;fill-opacity:1;fill-rule:nonzero;stroke:none"
             id="path2066" /></g></g></g><text
       xml:space="preserve"
       transform="scale(1,-1)"
       style="font-variant:normal;font-weight:bold;font-stretch:normal;font-size:15.6111px;font-family:Montserrat;-inkscape-font-specification:Montserrat-Bold;writing-mode:lr-tb;fill:#ffa24d;fill-opacity:1;fill-rule:nonzero;stroke:none"
       id="text2076"
       x="250.47394"
       y="-201.20853"><tspan
         x="250.47394"
         y="-201.20853"
         id="tspan2074">/</tspan></text><g
       id="g2088"
       transform="translate(-4.4324247,4.0072169)"><g
         id="g2086"
         clip-path="url(#clipPath576)"><g
           id="g2080"
           transform="translate(146.2251,380.1196)"><path
             d="M 0,0 V -2.362 L -8.648,-5.65 v 2.271 l 6.05,2.198 -6.05,2.216 v 2.254 z"
             style="fill:#ffa24d;fill-opacity:1;fill-rule:nonzero;stroke:none"
             id="path2078" /></g><g
           id="g2084"
           transform="translate(130.3218,383.4082)"><path
             d="M 0,0 V -2.253 L -6.05,-4.47 0,-6.668 v -2.271 l -8.648,3.288 v 2.362 z"
             style="fill:#ffa24d;fill-opacity:1;fill-rule:nonzero;stroke:none"
             id="path2082" /></g></g></g><text
       xml:space="preserve"
       transform="scale(1,-1)"
       style="font-variant:normal;font-weight:bold;font-stretch:normal;font-size:13.8438px;font-family:Montserrat;-inkscape-font-specification:Montserrat-Bold;writing-mode:lr-tb;fill:#ffffff;fill-opacity:1;fill-rule:nonzero;stroke:none"
       id="text2092"
       x="107.79665"
       y="-411.13446"><tspan
         x="107.79665 123.68935 132.97859 143.56905 147.48689 158.92183 168.07259 178.19246 187.48164 195.67708 207.36128 217.35652 221.89729 233.08308"
         y="-411.13446"
         sodipodi:role="line"
         id="tspan2090">WEB DEVELOPING</tspan></text><g
       id="g2218"
       transform="translate(-4.4324247,4.0072169)"><g
         id="g2216"
         clip-path="url(#clipPath596)"><path
           d="m 190.555,350.065 h -56.688 v 10.381 h 56.688 z"
           style="fill:#00b4cf;fill-opacity:1;fill-rule:nonzero;stroke:none"
           id="path2094" /><path
           d="m 226.886,350.065 h -28.344 v 10.381 h 28.344 z"
           style="fill:#ffa24d;fill-opacity:1;fill-rule:nonzero;stroke:none"
           id="path2096" /><path
           d="m 272.452,350.065 h -39.038 v 10.381 h 39.038 z"
           style="fill:#ffffff;fill-opacity:1;fill-rule:nonzero;stroke:none"
           id="path2098" /><path
           d="m 160.325,331.531 h -26.457 v 10.381 h 26.457 z"
           style="fill:#00b4cf;fill-opacity:1;fill-rule:nonzero;stroke:none"
           id="path2100" /><path
           d="m 212.714,331.531 h -45.19 v 10.381 h 45.19 z"
           style="fill:#ffa24d;fill-opacity:1;fill-rule:nonzero;stroke:none"
           id="path2102" /><path
           d="m 272.452,331.531 h -52.374 v 10.381 h 52.374 z"
           style="fill:#ffffff;fill-opacity:1;fill-rule:nonzero;stroke:none"
           id="path2104" /><path
           d="m 168.694,312.997 h -34.826 v 10.382 h 34.826 z"
           style="fill:#00b4cf;fill-opacity:1;fill-rule:nonzero;stroke:none"
           id="path2106" /><path
           d="m 239.875,312.997 h -65.512 v 10.382 h 65.512 z"
           style="fill:#ffa24d;fill-opacity:1;fill-rule:nonzero;stroke:none"
           id="path2108" /><path
           d="m 272.452,312.997 h -25.557 v 10.382 h 25.557 z"
           style="fill:#ffffff;fill-opacity:1;fill-rule:nonzero;stroke:none"
           id="path2110" /><path
           d="m 177.783,294.463 h -43.915 v 10.381 h 43.915 z"
           style="fill:#00b4cf;fill-opacity:1;fill-rule:nonzero;stroke:none"
           id="path2112" /><path
           d="m 226.886,294.463 h -42.624 v 10.381 h 42.624 z"
           style="fill:#ffa24d;fill-opacity:1;fill-rule:nonzero;stroke:none"
           id="path2114" /><path
           d="m 272.452,294.463 h -39.038 v 10.381 h 39.038 z"
           style="fill:#ffffff;fill-opacity:1;fill-rule:nonzero;stroke:none"
           id="path2116" /><path
           d="m 153.125,275.929 h -19.258 v 10.381 h 19.258 z"
           style="fill:#00b4cf;fill-opacity:1;fill-rule:nonzero;stroke:none"
           id="path2118" /><path
           d="M 197.76,275.929 H 159.605 V 286.31 H 197.76 Z"
           style="fill:#ffa24d;fill-opacity:1;fill-rule:nonzero;stroke:none"
           id="path2120" /><path
           d="M 272.452,275.929 H 203.7 v 10.381 h 68.752 z"
           style="fill:#ffffff;fill-opacity:1;fill-rule:nonzero;stroke:none"
           id="path2122" /><path
           d="m 188.941,257.395 h -55.074 v 10.381 h 55.074 z"
           style="fill:#00b4cf;fill-opacity:1;fill-rule:nonzero;stroke:none"
           id="path2124" /><path
           d="m 212.714,257.395 h -16.933 v 10.381 h 16.933 z"
           style="fill:#ffa24d;fill-opacity:1;fill-rule:nonzero;stroke:none"
           id="path2126" /><path
           d="m 272.452,257.395 h -52.374 v 10.381 h 52.374 z"
           style="fill:#ffffff;fill-opacity:1;fill-rule:nonzero;stroke:none"
           id="path2128" /><path
           d="m 205.574,238.86 h -71.706 v 10.382 h 71.706 z"
           style="fill:#00b4cf;fill-opacity:1;fill-rule:nonzero;stroke:none"
           id="path2130" /><path
           d="m 240.955,238.86 h -29.336 v 10.382 h 29.336 z"
           style="fill:#ffa24d;fill-opacity:1;fill-rule:nonzero;stroke:none"
           id="path2132" /><path
           d="m 272.452,238.86 h -25.557 v 10.382 h 25.557 z"
           style="fill:#ffffff;fill-opacity:1;fill-rule:nonzero;stroke:none"
           id="path2134" /><path
           d="m 155.825,220.327 h -21.958 v 10.381 h 21.958 z"
           style="fill:#00b4cf;fill-opacity:1;fill-rule:nonzero;stroke:none"
           id="path2136" /><path
           d="m 188.941,220.327 h -26.73 v 10.381 h 26.73 z"
           style="fill:#ffa24d;fill-opacity:1;fill-rule:nonzero;stroke:none"
           id="path2138" /><path
           d="m 272.452,220.327 h -76.671 v 10.381 h 76.671 z"
           style="fill:#ffffff;fill-opacity:1;fill-rule:nonzero;stroke:none"
           id="path2140" /><path
           d="m 282.144,220.327 h -2.111 v 140.119 h 2.111 z"
           style="fill:#ffffff;fill-opacity:1;fill-rule:nonzero;stroke:none"
           id="path2142" /><g
           id="g2146"
           transform="translate(121.2324,355.2554)"><path
             d="m 0,0 c 0,-2.867 -2.324,-5.19 -5.191,-5.19 -2.867,0 -5.191,2.323 -5.191,5.19 0,2.867 2.324,5.191 5.191,5.191 C -2.324,5.191 0,2.867 0,0"
             style="fill:#ffffff;fill-opacity:1;fill-rule:nonzero;stroke:none"
             id="path2144" /></g><g
           id="g2150"
           transform="translate(121.2324,336.7217)"><path
             d="m 0,0 c 0,-2.867 -2.324,-5.191 -5.191,-5.191 -2.867,0 -5.191,2.324 -5.191,5.191 0,2.867 2.324,5.19 5.191,5.19 C -2.324,5.19 0,2.867 0,0"
             style="fill:#ffffff;fill-opacity:1;fill-rule:nonzero;stroke:none"
             id="path2148" /></g><g
           id="g2154"
           transform="translate(121.2324,318.1875)"><path
             d="m 0,0 c 0,-2.867 -2.324,-5.191 -5.191,-5.191 -2.867,0 -5.191,2.324 -5.191,5.191 0,2.867 2.324,5.191 5.191,5.191 C -2.324,5.191 0,2.867 0,0"
             style="fill:#ffffff;fill-opacity:1;fill-rule:nonzero;stroke:none"
             id="path2152" /></g><g
           id="g2158"
           transform="translate(121.2324,299.6533)"><path
             d="m 0,0 c 0,-2.867 -2.324,-5.19 -5.191,-5.19 -2.867,0 -5.191,2.323 -5.191,5.19 0,2.867 2.324,5.191 5.191,5.191 C -2.324,5.191 0,2.867 0,0"
             style="fill:#ffffff;fill-opacity:1;fill-rule:nonzero;stroke:none"
             id="path2156" /></g><g
           id="g2162"
           transform="translate(121.2324,281.1196)"><path
             d="m 0,0 c 0,-2.867 -2.324,-5.191 -5.191,-5.191 -2.867,0 -5.191,2.324 -5.191,5.191 0,2.867 2.324,5.19 5.191,5.19 C -2.324,5.19 0,2.867 0,0"
             style="fill:#ffffff;fill-opacity:1;fill-rule:nonzero;stroke:none"
             id="path2160" /></g><g
           id="g2166"
           transform="translate(121.2324,262.5854)"><path
             d="m 0,0 c 0,-2.867 -2.324,-5.19 -5.191,-5.19 -2.867,0 -5.191,2.323 -5.191,5.19 0,2.867 2.324,5.191 5.191,5.191 C -2.324,5.191 0,2.867 0,0"
             style="fill:#ffffff;fill-opacity:1;fill-rule:nonzero;stroke:none"
             id="path2164" /></g><g
           id="g2170"
           transform="translate(121.2324,244.0518)"><path
             d="m 0,0 c 0,-2.867 -2.324,-5.191 -5.191,-5.191 -2.867,0 -5.191,2.324 -5.191,5.191 0,2.866 2.324,5.19 5.191,5.19 C -2.324,5.19 0,2.866 0,0"
             style="fill:#ffffff;fill-opacity:1;fill-rule:nonzero;stroke:none"
             id="path2168" /></g><g
           id="g2174"
           transform="translate(121.2324,225.5176)"><path
             d="m 0,0 c 0,-2.867 -2.324,-5.19 -5.191,-5.19 -2.867,0 -5.191,2.323 -5.191,5.19 0,2.866 2.324,5.19 5.191,5.19 C -2.324,5.19 0,2.866 0,0"
             style="fill:#ffffff;fill-opacity:1;fill-rule:nonzero;stroke:none"
             id="path2172" /></g><g
           id="g2178"
           transform="translate(284.7856,411.7031)"><path
             d="m 0,0 c 0,-2.924 -2.37,-5.294 -5.294,-5.294 -2.924,0 -5.294,2.37 -5.294,5.294 0,2.924 2.37,5.294 5.294,5.294 C -2.37,5.294 0,2.924 0,0"
             style="fill:#d53b5e;fill-opacity:1;fill-rule:nonzero;stroke:none"
             id="path2176" /></g><g
           id="g2182"
           transform="translate(271.6987,411.8096)"><path
             d="m 0,0 c 0,-2.946 -2.388,-5.334 -5.334,-5.334 -2.946,0 -5.334,2.388 -5.334,5.334 0,2.946 2.388,5.334 5.334,5.334 C -2.388,5.334 0,2.946 0,0"
             style="fill:#ffffff;fill-opacity:1;fill-rule:nonzero;stroke:none"
             id="path2180" /></g><path
           d="m 337.724,384.434 h -18.682 v 5.234 h 18.682 z"
           style="fill:#3f537e;fill-opacity:1;fill-rule:nonzero;stroke:none"
           id="path2184" /><path
           d="m 376.195,393.753 h -57.153 v 5.234 h 57.153 z"
           style="fill:#646491;fill-opacity:1;fill-rule:nonzero;stroke:none"
           id="path2186" /><g
           id="g2190"
           transform="translate(352.062,383.437)"><path
             d="M 0,0 V -2"
             style="fill:none;stroke:#ff7936;stroke-width:1;stroke-linecap:butt;stroke-linejoin:miter;stroke-miterlimit:10;stroke-dasharray:none;stroke-opacity:1"
             id="path2188" /></g><g
           id="g2194"
           transform="translate(352.062,378.061)"><path
             d="M 0,0 V -11.817"
             style="fill:none;stroke:#ff7936;stroke-width:1;stroke-linecap:butt;stroke-linejoin:miter;stroke-miterlimit:10;stroke-dasharray:3.376, 3.376;stroke-dashoffset:0;stroke-opacity:1"
             id="path2192" /></g><g
           id="g2198"
           transform="translate(352.062,364.5557)"><path
             d="M 0,0 V -2 H 2"
             style="fill:none;stroke:#ff7936;stroke-width:1;stroke-linecap:butt;stroke-linejoin:miter;stroke-miterlimit:10;stroke-dasharray:none;stroke-opacity:1"
             id="path2196" /></g><g
           id="g2202"
           transform="translate(357.8711,362.5557)"><path
             d="M 0,0 H 59.041"
             style="fill:none;stroke:#ff7936;stroke-width:1;stroke-linecap:butt;stroke-linejoin:miter;stroke-miterlimit:10;stroke-dasharray:3.809, 3.809;stroke-dashoffset:0;stroke-opacity:1"
             id="path2200" /></g><g
           id="g2206"
           transform="translate(418.8164,362.5557)"><path
             d="M 0,0 H 2 V 2"
             style="fill:none;stroke:#ff7936;stroke-width:1;stroke-linecap:butt;stroke-linejoin:miter;stroke-miterlimit:10;stroke-dasharray:none;stroke-opacity:1"
             id="path2204" /></g><g
           id="g2210"
           transform="translate(420.8164,368.6128)"><path
             d="M 0,0 V 6.085"
             style="fill:none;stroke:#ff7936;stroke-width:1;stroke-linecap:butt;stroke-linejoin:miter;stroke-miterlimit:10;stroke-dasharray:4.057, 4.057;stroke-dashoffset:0;stroke-opacity:1"
             id="path2208" /></g><g
           id="g2214"
           transform="translate(420.8164,376.7271)"><path
             d="M 0,0 V 2"
             style="fill:none;stroke:#ff7936;stroke-width:1;stroke-linecap:butt;stroke-linejoin:miter;stroke-miterlimit:10;stroke-dasharray:none;stroke-opacity:1"
             id="path2212" /></g></g></g><text
       xml:space="preserve"
       transform="scale(1,-1)"
       style="font-variant:normal;font-weight:900;font-stretch:normal;font-size:18.4267px;font-family:'Montserrat Black';-inkscape-font-specification:Montserrat-Black;writing-mode:lr-tb;fill:#ffffff;fill-opacity:1;fill-rule:nonzero;stroke:none"
       id="text2222"
       x="314.6098"
       y="-416.81757"><tspan
         sodipodi:role="line"
         id="tspan2220"
         x="314.6098"
         y="-416.81757">CONTENT</tspan></text><g
       id="g2236"
       transform="translate(-4.4324247,4.0072169)"><g
         id="g2234"
         clip-path="url(#clipPath730)"><g
           id="g2226"
           transform="translate(425.2773,385.6294)"><path
             d="m 0,0 c -5.516,-2.456 -12.001,0.027 -14.457,5.542 -0.201,0.451 -0.367,0.909 -0.506,1.374 -0.853,2.886 -0.444,5.931 0.964,8.435 0.007,0.021 0.02,0.049 0.035,0.069 1.11,1.956 2.83,3.594 5.043,4.579 0.416,0.18 0.832,0.34 1.262,0.464 0.042,0.021 0.084,0.036 0.132,0.042 2.192,0.645 4.461,0.562 6.528,-0.125 0.007,0 0.014,-0.006 0.02,-0.006 1.769,-0.597 3.386,-1.645 4.662,-3.06 0.75,-0.825 1.374,-1.782 1.852,-2.857 C 5.834,13.791 6.056,13.11 6.215,12.431 6.639,10.572 6.555,8.678 6.035,6.916 5.168,3.94 3.045,1.359 0,0 m 10.689,14.415 c -0.194,0.68 -0.444,1.352 -0.735,2.011 -0.832,1.86 -1.977,3.483 -3.35,4.828 -1.304,1.277 -2.817,2.31 -4.447,3.059 -0.028,0.021 -0.062,0.035 -0.091,0.042 -2.302,1.048 -4.841,1.54 -7.408,1.401 -1.755,-0.097 -3.524,-0.492 -5.23,-1.207 -0.104,-0.048 -0.215,-0.09 -0.32,-0.138 -3.058,-1.367 -5.472,-3.587 -7.075,-6.265 -1.998,-3.315 -2.754,-7.318 -1.97,-11.23 0.222,-1.131 0.576,-2.248 1.061,-3.344 3.545,-7.949 12.896,-11.529 20.839,-7.984 4.849,2.164 8.074,6.479 9.046,11.328 0.492,2.435 0.409,5.001 -0.32,7.499"
             style="fill:#646491;fill-opacity:1;fill-rule:nonzero;stroke:none"
             id="path2224" /></g><g
           id="g2230"
           transform="translate(436.2861,392.5454)"><path
             d="m 0,0 h -4.974 c 0.52,1.762 0.604,3.656 0.18,5.515 -0.159,0.679 -0.381,1.36 -0.68,2.026 -0.478,1.075 -1.102,2.032 -1.852,2.857 -1.276,1.415 -2.893,2.463 -4.661,3.06 -0.007,0 -0.014,0.006 -0.021,0.006 -2.067,0.687 -4.336,0.77 -6.528,0.125 -0.048,-0.006 -0.09,-0.021 -0.132,-0.042 -0.43,-0.124 -0.846,-0.284 -1.262,-0.464 -2.213,-0.985 -3.933,-2.623 -5.043,-4.579 -0.014,-0.02 -0.028,-0.048 -0.035,-0.069 C -26.416,5.931 -26.825,2.886 -25.972,0 h -4.974 c -0.783,3.912 -0.028,7.915 1.97,11.23 1.603,2.678 4.017,4.898 7.076,6.265 0.104,0.048 0.215,0.09 0.319,0.138 1.706,0.715 3.476,1.11 5.23,1.207 2.567,0.139 5.106,-0.353 7.409,-1.401 0.028,-0.007 0.062,-0.021 0.09,-0.042 1.63,-0.749 3.143,-1.782 4.447,-3.059 1.373,-1.345 2.518,-2.968 3.35,-4.828 C -0.764,8.851 -0.514,8.179 -0.319,7.499 0.409,5.001 0.492,2.435 0,0"
             style="fill:#d53b5e;fill-opacity:1;fill-rule:nonzero;stroke:none"
             id="path2228" /></g><path
           d="m 376.195,384.434 h -34.728 v 5.234 h 34.728 z"
           style="fill:#646491;fill-opacity:1;fill-rule:nonzero;stroke:none"
           id="path2232" /></g></g><text
       xml:space="preserve"
       transform="scale(1,-1)"
       style="font-variant:normal;font-weight:900;font-stretch:normal;font-size:26.4103px;font-family:'Montserrat Black';-inkscape-font-specification:Montserrat-Black;writing-mode:lr-tb;fill:#ffa24d;fill-opacity:1;fill-rule:nonzero;stroke:none"
       id="text2240"
       x="44.228226"
       y="-409.63638"><tspan
         x="44.228226 55.795914 63.719009"
         y="-409.63638"
         sodipodi:role="line"
         id="tspan2238">{ }</tspan></text><g
       id="g2400"
       transform="translate(-4.4324247,4.0072169)"><g
         id="g2398"
         clip-path="url(#clipPath752)"><path
           d="m 69.054,366.252 h -20.54 v 9.802 h 20.54 z"
           style="fill:#ffffff;fill-opacity:1;fill-rule:nonzero;stroke:none"
           id="path2242" /><path
           d="m 69.054,349.128 h -20.54 v 9.802 h 20.54 z"
           style="fill:#ffffff;fill-opacity:1;fill-rule:nonzero;stroke:none"
           id="path2244" /><path
           d="m 69.054,332.003 h -20.54 v 9.802 h 20.54 z"
           style="fill:#ffa24d;fill-opacity:1;fill-rule:nonzero;stroke:none"
           id="path2246" /><path
           d="m 69.054,314.878 h -20.54 v 9.802 h 20.54 z"
           style="fill:#ffa24d;fill-opacity:1;fill-rule:nonzero;stroke:none"
           id="path2248" /><path
           d="m 69.054,297.753 h -20.54 v 9.802 h 20.54 z"
           style="fill:#ffa24d;fill-opacity:1;fill-rule:nonzero;stroke:none"
           id="path2250" /><path
           d="m 69.054,280.628 h -20.54 v 9.802 h 20.54 z"
           style="fill:#ffa24d;fill-opacity:1;fill-rule:nonzero;stroke:none"
           id="path2252" /><path
           d="m 69.054,263.504 h -20.54 v 9.802 h 20.54 z"
           style="fill:#ffa24d;fill-opacity:1;fill-rule:nonzero;stroke:none"
           id="path2254" /><g
           id="g2258"
           transform="translate(634.7451,176.459)"><path
             d="m 0,0 c -3.898,0 -7.058,3.159 -7.058,7.058 0,3.897 3.16,7.056 7.058,7.056 3.897,0 7.057,-3.159 7.057,-7.056 C 7.057,3.159 3.897,0 0,0 m 14.746,6.853 c 0,0.071 0.009,0.133 0.009,0.205 0,0.071 -0.009,0.133 -0.009,0.195 1.024,0.472 2.056,1.015 3.07,1.673 1.086,0.748 2.19,1.611 3.213,2.599 l -0.222,0.872 c -0.214,0.988 -0.596,1.94 -0.944,2.892 -0.196,0.463 -0.426,0.917 -0.649,1.371 -0.205,0.472 -0.454,0.907 -0.73,1.335 l -0.463,0.766 c -1.397,-0.01 -2.812,-0.188 -4.103,-0.428 -1.165,-0.24 -2.295,-0.587 -3.346,-0.987 l -0.285,0.284 c 0.392,1.059 0.748,2.181 0.98,3.347 0.249,1.29 0.426,2.705 0.435,4.102 l -0.764,0.463 c -0.428,0.275 -0.873,0.524 -1.335,0.729 -0.455,0.223 -0.909,0.455 -1.38,0.65 -0.952,0.348 -1.896,0.73 -2.883,0.943 L 4.468,28.087 C 3.479,27.063 2.616,25.969 1.868,24.874 1.21,23.868 0.667,22.836 0.195,21.804 c -0.062,0 -0.133,0.017 -0.195,0.017 -0.071,0 -0.134,-0.017 -0.205,-0.017 -0.463,1.032 -1.015,2.064 -1.673,3.07 -0.738,1.095 -1.61,2.189 -2.59,3.213 L -5.34,27.864 c -0.997,-0.213 -1.94,-0.595 -2.892,-0.943 -0.463,-0.195 -0.917,-0.427 -1.38,-0.65 -0.462,-0.205 -0.899,-0.454 -1.335,-0.729 l -0.765,-0.463 c 0.018,-1.397 0.195,-2.812 0.437,-4.102 0.239,-1.166 0.587,-2.288 0.987,-3.347 -0.098,-0.098 -0.196,-0.187 -0.284,-0.284 -1.06,0.4 -2.181,0.747 -3.347,0.987 -1.29,0.24 -2.715,0.418 -4.102,0.428 l -0.472,-0.766 c -0.268,-0.428 -0.517,-0.863 -0.73,-1.335 -0.214,-0.454 -0.445,-0.908 -0.641,-1.371 -0.356,-0.952 -0.73,-1.904 -0.943,-2.892 l -0.222,-0.872 c 1.023,-0.988 2.118,-1.851 3.212,-2.599 1.005,-0.658 2.038,-1.201 3.061,-1.673 0,-0.062 -0.009,-0.124 -0.009,-0.195 0,-0.072 0.009,-0.134 0.009,-0.205 -1.023,-0.463 -2.056,-1.015 -3.061,-1.673 -1.094,-0.739 -2.189,-1.611 -3.212,-2.59 l 0.222,-0.872 c 0.213,-0.989 0.587,-1.941 0.943,-2.893 0.196,-0.463 0.427,-0.916 0.641,-1.379 0.213,-0.463 0.462,-0.899 0.73,-1.326 l 0.472,-0.766 c 1.387,0.009 2.812,0.188 4.102,0.428 1.166,0.24 2.287,0.587 3.347,0.988 0.088,-0.098 0.186,-0.196 0.284,-0.286 -0.4,-1.058 -0.748,-2.179 -0.987,-3.345 -0.242,-1.29 -0.419,-2.714 -0.437,-4.103 l 0.765,-0.472 c 0.436,-0.266 0.873,-0.516 1.335,-0.72 0.463,-0.223 0.917,-0.454 1.38,-0.651 0.952,-0.355 1.895,-0.729 2.892,-0.942 l 0.872,-0.223 c 0.98,1.024 1.852,2.118 2.59,3.213 0.658,1.005 1.21,2.038 1.673,3.07 0.071,-0.009 0.134,-0.018 0.205,-0.018 0.062,0 0.133,0.009 0.195,0.018 0.472,-1.032 1.015,-2.065 1.673,-3.07 0.748,-1.095 1.611,-2.189 2.6,-3.213 l 0.872,0.223 c 0.987,0.213 1.931,0.587 2.883,0.942 0.471,0.197 0.925,0.428 1.38,0.651 0.462,0.204 0.907,0.454 1.335,0.72 l 0.764,0.472 c -0.009,1.389 -0.186,2.813 -0.435,4.103 -0.232,1.166 -0.588,2.287 -0.98,3.345 0.099,0.09 0.188,0.188 0.285,0.286 1.051,-0.401 2.181,-0.748 3.346,-0.988 1.291,-0.24 2.706,-0.419 4.103,-0.428 l 0.463,0.766 c 0.276,0.427 0.525,0.863 0.73,1.326 0.223,0.463 0.453,0.916 0.649,1.379 0.348,0.952 0.73,1.904 0.944,2.893 l 0.222,0.872 c -1.023,0.979 -2.127,1.851 -3.213,2.59 -1.014,0.658 -2.046,1.21 -3.07,1.673"
             style="fill:#2e2e46;fill-opacity:1;fill-rule:nonzero;stroke:none"
             id="path2256" /></g><path
           d="m 584.639,167.553 h -9.317 v 41.968 h 9.317 z"
           style="fill:#d53b5e;fill-opacity:1;fill-rule:nonzero;stroke:none"
           id="path2260" /><path
           d="m 571.564,167.553 h -9.988 v 23.477 h 9.988 z"
           style="fill:#646491;fill-opacity:1;fill-rule:nonzero;stroke:none"
           id="path2262" /><path
           d="m 557.729,167.553 h -9.988 v 15.964 h 9.988 z"
           style="fill:#ff7936;fill-opacity:1;fill-rule:nonzero;stroke:none"
           id="path2264" /><g
           id="g2268"
           transform="translate(545.9736,174.2383)"><path
             d="M 0,0 H -2"
             style="fill:none;stroke:#ff7936;stroke-width:1;stroke-linecap:butt;stroke-linejoin:miter;stroke-miterlimit:10;stroke-dasharray:none;stroke-opacity:1"
             id="path2266" /></g><g
           id="g2272"
           transform="translate(538.9023,174.2383)"><path
             d="M 0,0 H -7.606"
             style="fill:none;stroke:#ff7936;stroke-width:1;stroke-linecap:butt;stroke-linejoin:miter;stroke-miterlimit:10;stroke-dasharray:5.071, 5.071;stroke-dashoffset:0;stroke-opacity:1"
             id="path2270" /></g><g
           id="g2276"
           transform="translate(528.7607,174.2383)"><path
             d="M 0,0 H -2 V -2"
             style="fill:none;stroke:#ff7936;stroke-width:1;stroke-linecap:butt;stroke-linejoin:miter;stroke-miterlimit:10;stroke-dasharray:none;stroke-opacity:1"
             id="path2274" /></g><g
           id="g2280"
           transform="translate(526.7607,168.4971)"><path
             d="M 0,0 V -28.054"
             style="fill:none;stroke:#ff7936;stroke-width:1;stroke-linecap:butt;stroke-linejoin:miter;stroke-miterlimit:10;stroke-dasharray:3.74, 3.74;stroke-dashoffset:0;stroke-opacity:1"
             id="path2278" /></g><g
           id="g2284"
           transform="translate(526.7607,138.5732)"><path
             d="M 0,0 V -2 H 2"
             style="fill:none;stroke:#ff7936;stroke-width:1;stroke-linecap:butt;stroke-linejoin:miter;stroke-miterlimit:10;stroke-dasharray:none;stroke-opacity:1"
             id="path2282" /></g><g
           id="g2288"
           transform="translate(532.1562,136.5732)"><path
             d="M 0,0 H 11.886"
             style="fill:none;stroke:#ff7936;stroke-width:1;stroke-linecap:butt;stroke-linejoin:miter;stroke-miterlimit:10;stroke-dasharray:3.396, 3.396;stroke-dashoffset:0;stroke-opacity:1"
             id="path2286" /></g><g
           id="g2292"
           transform="translate(545.7393,136.5732)"><path
             d="M 0,0 H 2"
             style="fill:none;stroke:#ff7936;stroke-width:1;stroke-linecap:butt;stroke-linejoin:miter;stroke-miterlimit:10;stroke-dasharray:none;stroke-opacity:1"
             id="path2290" /></g><path
           d="m 577.333,133.715 h -26.43 v 4.724 h 26.43 z"
           style="fill:#ffffff;fill-opacity:1;fill-rule:nonzero;stroke:none"
           id="path2294" /><path
           d="m 569.184,124.976 h -18.28 v 4.724 h 18.28 z"
           style="fill:#ffffff;fill-opacity:1;fill-rule:nonzero;stroke:none"
           id="path2296" /><path
           d="m 574.042,116.236 h -23.139 v 4.724 h 23.139 z"
           style="fill:#ffffff;fill-opacity:1;fill-rule:nonzero;stroke:none"
           id="path2298" /><path
           d="m 584.23,116.236 h -5.401 v 4.724 h 5.401 z"
           style="fill:#ffa24d;fill-opacity:1;fill-rule:nonzero;stroke:none"
           id="path2300" /><path
           d="m 609.057,116.236 h -19.874 v 4.724 h 19.874 z"
           style="fill:#ffa24d;fill-opacity:1;fill-rule:nonzero;stroke:none"
           id="path2302" /><path
           d="m 609.057,124.976 h -34.015 v 4.724 h 34.015 z"
           style="fill:#ffa24d;fill-opacity:1;fill-rule:nonzero;stroke:none"
           id="path2304" /><path
           d="m 609.057,133.715 h -26.43 v 4.724 h 26.43 z"
           style="fill:#ffa24d;fill-opacity:1;fill-rule:nonzero;stroke:none"
           id="path2306" /><path
           d="m 699.692,177.767 h -17.414 v 8.311 h 17.414 z"
           style="fill:#d53b5e;fill-opacity:1;fill-rule:nonzero;stroke:none"
           id="path2308" /><path
           d="m 699.692,163.247 h -17.414 v 8.311 h 17.414 z"
           style="fill:#d53b5e;fill-opacity:1;fill-rule:nonzero;stroke:none"
           id="path2310" /><path
           d="m 699.692,148.728 h -17.414 v 8.311 h 17.414 z"
           style="fill:#d53b5e;fill-opacity:1;fill-rule:nonzero;stroke:none"
           id="path2312" /><path
           d="m 699.692,134.209 h -17.414 v 8.311 h 17.414 z"
           style="fill:#d53b5e;fill-opacity:1;fill-rule:nonzero;stroke:none"
           id="path2314" /><path
           d="M 699.692,119.689 H 682.278 V 128 h 17.414 z"
           style="fill:#ffffff;fill-opacity:1;fill-rule:nonzero;stroke:none"
           id="path2316" /><path
           d="m 699.692,105.17 h -17.414 v 8.311 h 17.414 z"
           style="fill:#ffffff;fill-opacity:1;fill-rule:nonzero;stroke:none"
           id="path2318" /><path
           d="m 699.692,90.651 h -17.414 v 8.311 h 17.414 z"
           style="fill:#ffffff;fill-opacity:1;fill-rule:nonzero;stroke:none"
           id="path2320" /><g
           id="g2324"
           transform="translate(623.7656,66.8369)"><path
             d="m 0,0 c -6.509,-0.49 -11.957,1.057 -16.509,3.882 -18.371,11.368 -22.203,43.43 -22.468,45.838 0.162,-0.74 1.972,-4.659 21.067,-17.505 1.589,-1.072 3.044,-2.159 4.372,-3.259 0,0 0.023,-0.019 0.069,-0.053 C 3.171,15.123 0,0 0,0"
             style="fill:#008167;fill-opacity:1;fill-rule:nonzero;stroke:none"
             id="path2322" /></g><g
           id="g2328"
           transform="translate(584.7754,116.6982)"><path
             d="M 0,0 C 0,0 17.154,-42.095 36.184,-46.525"
             style="fill:none;stroke:#006d51;stroke-width:1;stroke-linecap:butt;stroke-linejoin:miter;stroke-miterlimit:10;stroke-dasharray:none;stroke-opacity:1"
             id="path2326" /></g><g
           id="g2340"><g
             id="g2330" /><g
             id="g2338"><g
               clip-path="url(#clipPath848)"
               opacity="0.5"
               id="g2336"><g
                 transform="translate(623.7656,66.8369)"
                 id="g2334"><path
                   d="m 0,0 c -6.509,-0.49 -11.957,1.057 -16.509,3.882 3.656,8.653 2.971,25.074 2.971,25.074 0,0 0.023,-0.019 0.069,-0.053 C 3.171,15.123 0,0 0,0"
                   style="fill:#006d51;fill-opacity:1;fill-rule:nonzero;stroke:none"
                   id="path2332" /></g></g></g></g><g
           id="g2344"
           transform="translate(672.5254,114.2139)"><path
             d="M 0,0 C -0.072,-0.448 -0.329,-2.003 -0.842,-4.292 V -4.3 c -2.711,-12.137 -12.493,-44.797 -38.812,-41.523 0,0 -0.445,2.802 0.444,6.995 1.302,6.165 5.486,15.342 18.217,23.038 C -2.102,-4.365 -0.191,-0.697 0,0"
             style="fill:#008167;fill-opacity:1;fill-rule:nonzero;stroke:none"
             id="path2342" /></g><g
           id="g2348"
           transform="translate(671.6836,111.6211)"><path
             d="M 0,0 C 0,0 -13.508,-34.997 -36.938,-42.133"
             style="fill:none;stroke:#006d51;stroke-width:1;stroke-linecap:butt;stroke-linejoin:miter;stroke-miterlimit:10;stroke-dasharray:none;stroke-opacity:1"
             id="path2346" /></g><g
           id="g2360"><g
             id="g2350" /><g
             id="g2358"><g
               clip-path="url(#clipPath872)"
               opacity="0.5"
               id="g2356"><g
                 transform="translate(671.6836,109.9219)"
                 id="g2354"><path
                   d="m 0,0 v -0.008 c -2.711,-12.138 -12.493,-44.797 -38.813,-41.523 0,0 -0.444,2.802 0.445,6.995 h 0.026 C -16.445,-35.707 0,0 0,0"
                   style="fill:#006d51;fill-opacity:1;fill-rule:nonzero;stroke:none"
                   id="path2352" /></g></g></g></g><g
           id="g2364"
           transform="translate(631.458,67.2236)"><path
             d="m 0,0 c -0.65,-1.13 -10.261,2.863 -14.591,14.419 h -0.004 c -2.6,6.941 -3.293,16.612 1.003,29.535 11.287,33.938 6.635,40.336 6.497,40.516 0.227,-0.108 10.035,-4.978 16.361,-16.827 0,0 0.007,-0.016 0.026,-0.046 C 16.249,54.525 18.964,32.984 0,0"
             style="fill:#009b79;fill-opacity:1;fill-rule:nonzero;stroke:none"
             id="path2362" /></g><g
           id="g2368"
           transform="translate(624.3584,151.6973)"><path
             d="M 0,0 C 0,0 14.718,-18.57 9.113,-53.893 3.509,-89.215 7.1,-84.474 7.1,-84.474"
             style="fill:none;stroke:#008167;stroke-width:1;stroke-linecap:butt;stroke-linejoin:miter;stroke-miterlimit:10;stroke-dasharray:none;stroke-opacity:1"
             id="path2366" /></g><g
           id="g2380"><g
             id="g2370" /><g
             id="g2378"><g
               clip-path="url(#clipPath896)"
               opacity="0.5"
               id="g2376"><g
                 transform="translate(631.458,67.2236)"
                 id="g2374"><path
                   d="M 0,0 C -0.65,-1.13 -10.261,2.863 -14.591,14.419 9.641,7.534 9.266,67.643 9.266,67.643 c 0,0 0.007,-0.016 0.026,-0.046 C 16.249,54.525 18.964,32.984 0,0"
                   style="fill:#008167;fill-opacity:1;fill-rule:nonzero;stroke:none"
                   id="path2372" /></g></g></g></g><g
           id="g2384"
           transform="translate(584.7734,116.6982)"><path
             d="M 0,0 C 0,0 0.004,-0.038 0.012,-0.118 -0.007,-0.034 0,0 0,0"
             style="fill:#008167;fill-opacity:1;fill-rule:nonzero;stroke:none"
             id="path2382" /></g><g
           id="g2388"
           transform="translate(650.085,67.7285)"><path
             d="m 0,0 v -27.127 c 0,-7.936 -6.433,-14.369 -14.369,-14.369 h -12.758 c -5.195,0 -9.748,2.757 -12.27,6.892 h -0.004 c -1.329,2.178 -2.095,4.74 -2.095,7.477 V 0 Z"
             style="fill:#ffa24d;fill-opacity:1;fill-rule:nonzero;stroke:none"
             id="path2386" /></g><g
           id="g2392"
           transform="translate(651.5928,71.248)"><path
             d="m 0,0 h -44.511 c -0.585,0 -1.058,-0.475 -1.058,-1.06 v -1.4 c 0,-0.585 0.473,-1.06 1.058,-1.06 H 0 c 0.585,0 1.06,0.474 1.06,1.06 v 1.4 C 1.06,-0.475 0.585,0 0,0"
             style="fill:#ffa24d;fill-opacity:1;fill-rule:nonzero;stroke:none"
             id="path2390" /></g><g
           id="g2396"
           transform="translate(650.085,67.7285)"><path
             d="m 0,0 v -27.127 c 0,-7.936 -6.433,-14.369 -14.369,-14.369 h -12.758 c -5.195,0 -9.748,2.757 -12.27,6.892 30.392,-9.545 36.993,12.803 35.817,21.666 C -4.751,-4.074 -15.702,0 -15.702,0 Z"
             style="fill:#f68400;fill-opacity:1;fill-rule:nonzero;stroke:none"
             id="path2394" /></g></g></g><path
       style="fill:#333333;fill-opacity:1;stroke-width:0.379745"
       d="m 370.08327,242.89521 c -2.5795,0.45626 -4.9957,1.5168 -6.1045,2.6794 -1.3795,1.44659 -2.2475,3.87065 -4.0345,11.26847 -1.8663,7.72517 -2.245,8.66421 -3.9376,9.75993 -2.3506,1.52165 -2.354,5.02743 -0.012,6.13919 1.6129,0.76376 10.2234,2.36569 15.176,2.82343 6.32,0.5841 16.8426,0.21717 24.6834,-0.86074 7.7688,-1.068 8.2135,-1.06671 16.1393,0.0463 5.3934,0.75737 8.0492,0.90919 16.1391,0.92254 10.1037,0.0166 12.3658,-0.21171 20.385,-2.05811 4.0742,-0.93806 4.873,-1.58596 4.8123,-3.90307 -0.035,-1.32989 -0.274,-1.78077 -1.5446,-2.91118 -0.8269,-0.73566 -1.7011,-1.70871 -1.9426,-2.16233 -0.2416,-0.45362 -1.1959,-3.95678 -2.1206,-7.78479 -1.7749,-7.34706 -2.6594,-9.83557 -3.9928,-11.23182 -2.343,-2.45374 -6.9621,-3.32474 -16.1038,-3.03664 -7.2946,0.22989 -10.3784,1.00321 -12.829,3.21709 -2.6766,2.41816 -2.9165,3.00028 -6.696,16.24322 -0.7798,2.73228 -2.7341,5.12656 -4.1846,5.12656 -0.6251,0 -1.4551,-0.51613 -2.3605,-1.46806 -1.2443,-1.30796 -1.5914,-2.16732 -3.1834,-7.87972 -2.1451,-7.69706 -3.1444,-9.88332 -5.4427,-11.90641 -2.8682,-2.52459 -5.4203,-3.12972 -13.7838,-3.26822 -3.8639,-0.064 -7.9446,0.0463 -9.068,0.24499 z m 15.5765,2.06834 c 4.8688,0.97555 6.702,2.55976 8.2846,7.15969 0.9962,2.89561 1.8556,7.85085 2.1624,12.46751 0.3622,5.45121 -0.3907,6.2559 -7.0212,7.50467 -7.2844,1.37191 -16.4522,1.28058 -22.2592,-0.22175 -5.232,-1.35356 -5.7418,-2.18894 -5.1426,-8.42863 0.4017,-4.18464 1.422,-10.01822 2.2705,-12.98122 1.4027,-4.89935 5.5683,-6.61847 15.0071,-6.19349 2.2975,0.10349 5.3118,0.41539 6.6984,0.69322 z m 49.193,-0.59237 c 5.1918,0.59699 7.8029,2.39209 8.8624,6.09264 0.8484,2.963 1.8687,8.79658 2.2705,12.98122 0.5999,6.24809 0.094,7.07259 -5.1753,8.43804 -6.125,1.58715 -17.6938,1.51169 -24.3147,-0.15859 -4.0208,-1.01437 -5.0661,-2.10874 -5.0661,-5.30429 0,-1.24268 0.2639,-4.15159 0.5866,-6.46425 0.9734,-6.97952 2.7252,-11.59172 5.0246,-13.22899 1.5424,-1.09833 5.0252,-2.00217 8.9618,-2.32576 5.0947,-0.41878 5.4588,-0.42002 8.8502,-0.0301 z"
       id="path1576"
       sodipodi:nodetypes="sssssssssssssssssssssssssssssssssssssssssssss" /><text
       xml:space="preserve"
       style="font-weight:900;font-size:32.8469px;font-family:Nunito;-inkscape-font-specification:'Nunito Heavy';text-align:center;text-anchor:middle;fill:none;fill-opacity:1;stroke:#a05a2c;stroke-width:1.42022;stroke-opacity:1"
       x="459.41168"
       y="-80.237694"
       id="text17983"
       transform="scale(1,-1)"><tspan
         sodipodi:role="line"
         id="tspan17981"
         style="fill:#ffffff;stroke:none;stroke-width:1.42022"
         x="459.41168"
         y="-80.237694">O</tspan></text></g></svg>
