<?xml version="1.0" encoding="UTF-8" standalone="no"?>
<!-- Created with Inkscape (http://www.inkscape.org/) -->

<svg
   width="128.74606mm"
   height="74.942719mm"
   viewBox="0 0 128.74606 74.942719"
   version="1.1"
   id="svg32096"
   inkscape:version="1.2.2 (b0a8486541, 2022-12-01)"
   sodipodi:docname="personal_brand-light.svg"
   xmlns:inkscape="http://www.inkscape.org/namespaces/inkscape"
   xmlns:sodipodi="http://sodipodi.sourceforge.net/DTD/sodipodi-0.dtd"
   xmlns="http://www.w3.org/2000/svg"
   xmlns:svg="http://www.w3.org/2000/svg">
  <sodipodi:namedview
     id="namedview32098"
     pagecolor="#ffffff"
     bordercolor="#000000"
     borderopacity="0.25"
     inkscape:showpageshadow="2"
     inkscape:pageopacity="0.0"
     inkscape:pagecheckerboard="0"
     inkscape:deskcolor="#d1d1d1"
     inkscape:document-units="mm"
     showgrid="false"
     inkscape:zoom="0.55118716"
     inkscape:cx="644.06435"
     inkscape:cy="494.38743"
     inkscape:window-width="1846"
     inkscape:window-height="1016"
     inkscape:window-x="1994"
     inkscape:window-y="27"
     inkscape:window-maximized="1"
     inkscape:current-layer="layer1" />
  <defs
     id="defs32093" />
  <g
     inkscape:label="Layer 1"
     inkscape:groupmode="layer"
     id="layer1">
    <path
       style="fill:#000000;stroke-width:0.251645"
       d="m 8.5830757,74.864729 c -6.636387,-0.13736 -6.721063,-0.15615 -7.93556299,-1.78296 -1.210832,-1.62178 -0.661329,-4.27898 1.13026299,-5.4655 0.986387,-0.65329 1.171531,-0.68153 5.003873,-0.76336 l 3.9795973,-0.0851 0.06604,-29.98667 0.06604,-29.9867 0.669488,-1.428115 c 0.937311,-1.999483 2.48362,-3.578899 4.453108,-4.548498 L 17.677169,0 h 46.690844 46.690867 l 1.66124,0.817826 c 1.96949,0.969599 3.5158,2.549015 4.45311,4.548498 l 0.66949,1.428115 0.066,29.9867 0.066,29.98667 3.96042,0.0851 c 4.63708,0.0995 5.39953,0.3842 6.36399,2.37655 0.9371,1.93582 0.38666,3.77121 -1.52028,5.06907 -0.80338,0.54677 -1.03138,0.56623 -6.64545,0.56682 -3.19746,2.6e-4 -28.235203,0.0293 -55.639397,0.0628 -27.40423,0.0343 -52.563949,0.006 -55.9105363,-0.0634 z M 109.91564,37.671509 c 0,-22.329383 -0.0704,-29.211168 -0.30196,-29.442539 -0.43929,-0.439291 -90.052497,-0.439291 -90.491787,0 -0.23129,0.231283 -0.30196,7.113156 -0.30196,29.442539 v 29.14055 h 45.54785 45.547857 z m -51.589917,20.52167 c -1.16332,-0.79173 -1.77554,-1.70295 -1.91675,-2.85279 -0.16172,-1.31731 7.99612,-36.678117 8.67429,-37.59923 1.73201,-2.352393 4.88485,-2.349576 6.62858,0.0059 0.25858,0.349242 0.53324,1.028681 0.61043,1.509856 0.18755,1.169565 -8.00794,36.826284 -8.67464,37.740964 -0.81662,1.12043 -2.01991,1.76151 -3.30617,1.76151 -0.8134,0 -1.44411,-0.17728 -2.01574,-0.56621 z m -13.23338,-7.88249 c -0.77897,-0.38435 -8.53191,-9.18949 -9.5996,-10.90245 -0.75335,-1.20863 -0.75335,-2.86882 0,-4.07745 1.13082,-1.81425 8.82817,-10.526428 9.64107,-10.91218 3.08933,-1.465977 6.44716,1.231347 5.62035,4.514802 -0.19724,0.783603 -1.0502,1.963118 -3.38334,4.679018 -1.71575,1.9972 -3.11953,3.68788 -3.11953,3.75709 0,0.0693 1.41353,1.76782 3.14116,3.7747 3.41806,3.97052 3.85401,4.8064 3.39532,6.50991 -0.68305,2.5366 -3.3846,3.79671 -5.69543,2.65656 z m 34.98196,0.0384 c -1.61046,-0.70118 -2.60909,-2.86309 -2.13053,-4.6123 0.17317,-0.63254 1.29381,-2.14671 3.39933,-4.59253 1.72764,-2.00688 3.141174,-3.70548 3.141174,-3.77469 0,-0.0693 -1.413534,-1.76782 -3.141174,-3.77467 -3.41805,-3.970528 -3.854,-4.806436 -3.39531,-6.509946 0.69068,-2.564952 3.28716,-3.78943 5.65396,-2.666299 0.812934,0.385757 8.510254,9.097935 9.641074,10.912185 0.70536,1.13162 0.75091,2.86876 0.10302,3.92606 -0.93214,1.52107 -8.89169,10.5824 -9.670834,11.00951 -0.94843,0.51989 -2.514,0.55584 -3.60068,0.0828 z"
       id="path32089" />
  </g>
</svg>
