<?xml version="1.0" encoding="UTF-8" standalone="no"?>
<svg
   viewBox="0 0 30 30"
   width="24px"
   height="24px"
   version="1.1"
   id="svg4"
   sodipodi:docname="adobe-illustrator-light.svg"
   inkscape:version="1.2.2 (b0a8486541, 2022-12-01)"
   xmlns:inkscape="http://www.inkscape.org/namespaces/inkscape"
   xmlns:sodipodi="http://sodipodi.sourceforge.net/DTD/sodipodi-0.dtd"
   xmlns="http://www.w3.org/2000/svg"
   xmlns:svg="http://www.w3.org/2000/svg">
  <defs
     id="defs8" />
  <sodipodi:namedview
     id="namedview6"
     pagecolor="#ffffff"
     bordercolor="#000000"
     borderopacity="0.25"
     inkscape:showpageshadow="2"
     inkscape:pageopacity="0.0"
     inkscape:pagecheckerboard="0"
     inkscape:deskcolor="#d1d1d1"
     showgrid="false"
     inkscape:zoom="29.166667"
     inkscape:cx="11.468571"
     inkscape:cy="15.034286"
     inkscape:window-width="1846"
     inkscape:window-height="1016"
     inkscape:window-x="1994"
     inkscape:window-y="27"
     inkscape:window-maximized="1"
     inkscape:current-layer="svg4" />
  <path
     d="M 6 4 C 4.895 4 4 4.895 4 6 L 4 24 C 4 25.105 4.895 26 6 26 L 24 26 C 25.105 26 26 25.105 26 24 L 26 6 C 26 4.895 25.105 4 24 4 L 6 4 z M 19.660156 9.2480469 C 20.282156 9.2480469 20.707031 9.6445469 20.707031 10.185547 C 20.707031 10.726547 20.282156 11.123047 19.660156 11.123047 C 19.045156 11.123047 18.615234 10.726547 18.615234 10.185547 C 18.615234 9.6445469 19.045156 9.2480469 19.660156 9.2480469 z M 11.792969 9.953125 L 13.775391 9.953125 L 17.28125 19.818359 L 15.388672 19.818359 L 14.554688 17.296875 L 10.925781 17.296875 L 10.076172 19.818359 L 8.2929688 19.818359 L 11.792969 9.953125 z M 12.6875 11.832031 L 11.335938 15.900391 L 14.144531 15.900391 L 12.804688 11.832031 L 12.6875 11.832031 z M 18.820312 12.339844 L 20.507812 12.339844 L 20.507812 19.818359 L 18.820312 19.818359 L 18.820312 12.339844 z"
     id="path2"
     style="fill:#000000;fill-opacity:1" />
</svg>
