<?xml version="1.0" encoding="UTF-8" standalone="no"?>
<svg
   viewBox="0 0 24 24"
   width="24"
   height="24"
   version="1.1"
   id="svg1"
   sodipodi:docname="c-sharp-dark.svg"
   inkscape:version="1.3 (0e150ed6c4, 2023-07-21)"
   xmlns:inkscape="http://www.inkscape.org/namespaces/inkscape"
   xmlns:sodipodi="http://sodipodi.sourceforge.net/DTD/sodipodi-0.dtd"
   xmlns="http://www.w3.org/2000/svg"
   xmlns:svg="http://www.w3.org/2000/svg">
  <defs
     id="defs2" />
  <sodipodi:namedview
     id="namedview2"
     pagecolor="#ffffff"
     bordercolor="#666666"
     borderopacity="1.0"
     inkscape:showpageshadow="2"
     inkscape:pageopacity="0.0"
     inkscape:pagecheckerboard="0"
     inkscape:deskcolor="#d1d1d1"
     inkscape:zoom="1.8349421"
     inkscape:cx="-30.518674"
     inkscape:cy="32.971067"
     inkscape:window-width="1366"
     inkscape:window-height="715"
     inkscape:window-x="-8"
     inkscape:window-y="-8"
     inkscape:window-maximized="1"
     inkscape:current-layer="svg1" />
  <g
     fill="#ffffff"
     fill-rule="nonzero"
     stroke="none"
     stroke-width="1"
     stroke-linecap="butt"
     stroke-linejoin="miter"
     stroke-miterlimit="10"
     stroke-dasharray="none"
     stroke-dashoffset="0"
     font-family="none"
     font-weight="none"
     font-size="none"
     text-anchor="none"
     style="mix-blend-mode:normal;fill:#ffffff"
     id="g3"
     transform="matrix(0.09559322,0,0,0.09559322,-0.23593216,-0.23592727)">
    <g
       transform="scale(5.12)"
       id="g2"
       style="fill:#ffffff">
      <path
         d="M 25,2 C 24.28516,2 23.57031,2.17969 22.93359,2.53906 L 6.08984,12.0039 C 4.80078,12.72656 4,14.08203 4,15.53515 v 18.92969 c 0,1.45313 0.80078,2.80859 2.08984,3.53125 l 16.84375,9.46484 c 0.63672,0.35938 1.35156,0.53906 2.06641,0.53906 0.71484,0 1.42969,-0.17969 2.06641,-0.53906 L 43.91016,37.99999 C 45.19922,37.27343 46,35.91796 46,34.46483 V 15.53514 c 0,-1.45312 -0.80078,-2.80859 -2.08984,-3.53125 L 27.06641,2.53905 C 26.42969,2.17968 25.71485,1.99999 25,1.99999 Z m 0,11 c 3.78125,0 7.27734,1.75391 9.54297,4.73828 l -4.38281,2.53906 C 28.84375,18.83593 26.97266,18 25,18 c -3.85937,0 -7,3.14063 -7,7 0,3.85938 3.14063,7 7,7 1.97266,0 3.84375,-0.83594 5.16016,-2.27734 l 4.38281,2.53906 C 32.27735,35.2461 28.78125,37 25,37 18.38281,37 13,31.61719 13,25 13,18.38281 18.38281,13 25,13 Z m 10,7 h 2 v 2 h 2 v -2 h 2 v 2 h 2 v 2 h -2 v 2 h 2 v 2 h -2 v 2 h -2 v -2 h -2 v 2 h -2 v -2 h -2 v -2 h 2 v -2 h -2 v -2 h 2 z m 2,4 v 2 h 2 v -2 z"
         id="path1"
         style="fill:#ffffff" />
    </g>
  </g>
</svg>
