<?xml version="1.0" encoding="UTF-8" standalone="no"?>
<svg
   viewBox="0 0 30 30"
   width="24px"
   height="24px"
   version="1.1"
   id="svg4"
   sodipodi:docname="figma-dark.svg"
   inkscape:version="1.2.2 (b0a8486541, 2022-12-01)"
   xmlns:inkscape="http://www.inkscape.org/namespaces/inkscape"
   xmlns:sodipodi="http://sodipodi.sourceforge.net/DTD/sodipodi-0.dtd"
   xmlns="http://www.w3.org/2000/svg"
   xmlns:svg="http://www.w3.org/2000/svg">
  <defs
     id="defs8" />
  <sodipodi:namedview
     id="namedview6"
     pagecolor="#ffffff"
     bordercolor="#000000"
     borderopacity="0.25"
     inkscape:showpageshadow="2"
     inkscape:pageopacity="0.0"
     inkscape:pagecheckerboard="0"
     inkscape:deskcolor="#d1d1d1"
     showgrid="false"
     inkscape:zoom="29.166667"
     inkscape:cx="11.468571"
     inkscape:cy="15.034286"
     inkscape:window-width="1846"
     inkscape:window-height="1016"
     inkscape:window-x="1994"
     inkscape:window-y="27"
     inkscape:window-maximized="1"
     inkscape:current-layer="svg4" />
  <path
     d="M10 29L10 29c-2.209 0-4-1.791-4-4l0 0c0-2.209 1.791-4 4-4h2.857C13.488 21 14 21.512 14 22.143V25C14 27.209 12.209 29 10 29zM20 9h-2.857C16.512 9 16 8.488 16 7.857V2.143C16 1.512 16.512 1 17.143 1H20c2.209 0 4 1.791 4 4l0 0C24 7.209 22.209 9 20 9zM10 1h2.857C13.488 1 14 1.512 14 2.143v5.714C14 8.488 13.488 9 12.857 9H10C7.791 9 6 7.209 6 5l0 0C6 2.791 7.791 1 10 1zM10 11h2.857C13.488 11 14 11.512 14 12.143v5.714C14 18.488 13.488 19 12.857 19H10c-2.209 0-4-1.791-4-4l0 0C6 12.791 7.791 11 10 11zM20 11A4 4 0 1020 19 4 4 0 1020 11z"
     id="path2"
     style="fill:#ffffff;fill-opacity:1" />
</svg>
