<?xml version="1.0" encoding="UTF-8" standalone="no"?>
<svg
   viewBox="0 0 50 50"
   width="24px"
   height="24px"
   version="1.1"
   id="svg4"
   sodipodi:docname="gimp-light.svg"
   inkscape:version="1.2.2 (b0a8486541, 2022-12-01)"
   xmlns:inkscape="http://www.inkscape.org/namespaces/inkscape"
   xmlns:sodipodi="http://sodipodi.sourceforge.net/DTD/sodipodi-0.dtd"
   xmlns="http://www.w3.org/2000/svg"
   xmlns:svg="http://www.w3.org/2000/svg">
  <defs
     id="defs8" />
  <sodipodi:namedview
     id="namedview6"
     pagecolor="#ffffff"
     bordercolor="#000000"
     borderopacity="0.25"
     inkscape:showpageshadow="2"
     inkscape:pageopacity="0.0"
     inkscape:pagecheckerboard="0"
     inkscape:deskcolor="#d1d1d1"
     showgrid="false"
     inkscape:zoom="17.5"
     inkscape:cx="19.114286"
     inkscape:cy="25.057143"
     inkscape:window-width="1846"
     inkscape:window-height="1016"
     inkscape:window-x="1994"
     inkscape:window-y="27"
     inkscape:window-maximized="1"
     inkscape:current-layer="svg4" />
  <path
     d="M 41.191406 6.019531 C 40.054688 5.882813 39.429688 7.226563 38.789063 8.867188 C 37.097656 13.210938 32.128906 15.980469 27.769531 16.890625 C 26.808594 16.328125 25.695313 16 24.5 16 C 22.925781 16 21.480469 16.5625 20.355469 17.496094 C 16.050781 17.15625 12.863281 12.492188 12.828125 12.441406 L 11 9.710938 L 11 19.347656 C 10.597656 19.917969 10.316406 20.574219 10.15625 21.277344 C 8.105469 19.84375 5.71875 19.546875 3.960938 20.71875 C 2.984375 21.367188 2.339844 22.386719 2.101563 23.660156 C 1.753906 25.507813 2.300781 27.621094 3.59375 29.464844 C 5.1875 31.726563 7.484375 33.011719 9.5625 33.011719 C 10.453125 33.011719 11.300781 32.773438 12.039063 32.28125 C 13.019531 31.632813 13.664063 30.613281 13.902344 29.339844 C 13.996094 28.835938 14.019531 28.308594 13.984375 27.777344 C 14.472656 27.917969 14.980469 28 15.5 28 C 15.664063 28 15.824219 27.984375 15.988281 27.96875 C 16.007813 28.558594 15.972656 29.140625 15.867188 29.703125 C 15.527344 31.523438 14.585938 32.992188 13.144531 33.949219 C 12.761719 34.207031 12.34375 34.40625 11.910156 34.566406 C 12.980469 35.242188 14.15625 35.898438 15.28125 36.390625 C 19.304688 38.152344 23.058594 39.027344 26.4375 39.027344 C 29.28125 39.027344 31.847656 38.390625 34.09375 37.152344 C 34.617188 37.4375 35.140625 37.707031 35.65625 37.941406 C 38.378906 39.183594 41.074219 40.085938 43.078125 40.449219 C 43.117188 40.675781 43.164063 40.90625 43.238281 41.144531 C 43.976563 43.539063 47.945313 44.746094 48.734375 44.964844 L 50 45.3125 L 50 44 C 50.003906 42.359375 49.886719 38.40625 48.769531 37.199219 C 47.773438 36.121094 46.441406 35.746094 45.246094 36.167969 C 43.832031 34.984375 41.699219 33.667969 39.214844 32.46875 C 43.695313 25.605469 43.136719 12.21875 42.730469 9.101563 C 42.519531 7.523438 42.339844 6.160156 41.191406 6.019531 Z M 24.5 18 C 26.980469 18 29 20.019531 29 22.5 C 29 22.78125 28.964844 23.054688 28.917969 23.324219 C 28.609375 21.992188 27.421875 21 26 21 C 25.914063 21 25.835938 21.019531 25.75 21.027344 C 26.460938 21.144531 27 21.757813 27 22.5 C 27 23.328125 26.328125 24 25.5 24 C 24.671875 24 24 23.328125 24 22.5 C 24 22.09375 24.164063 21.726563 24.425781 21.457031 C 23.574219 21.984375 23 22.921875 23 24 C 23 25.421875 23.992188 26.609375 25.324219 26.917969 C 25.054688 26.964844 24.78125 27 24.5 27 C 22.019531 27 20 24.980469 20 22.5 C 20 20.019531 22.019531 18 24.5 18 Z M 15.5 19 C 16.636719 19 17.691406 19.554688 18.34375 20.464844 C 18.222656 20.824219 18.140625 21.195313 18.078125 21.578125 C 17.648438 21.222656 17.101563 21 16.5 21 C 16.429688 21 16.363281 21.015625 16.292969 21.019531 C 16.882813 21.121094 17.332031 21.632813 17.332031 22.25 C 17.332031 22.941406 16.773438 23.5 16.082031 23.5 C 15.394531 23.5 14.832031 22.941406 14.832031 22.25 C 14.832031 21.910156 14.96875 21.605469 15.1875 21.378906 C 14.476563 21.820313 14 22.601563 14 23.5 C 14 24.71875 14.875 25.734375 16.03125 25.953125 C 15.855469 25.980469 15.679688 26 15.5 26 C 14.761719 26 14.054688 25.773438 13.453125 25.339844 L 13.363281 25.277344 C 13.113281 24.679688 12.796875 24.09375 12.40625 23.535156 C 12.296875 23.382813 12.179688 23.238281 12.066406 23.09375 C 12.03125 22.898438 12 22.699219 12 22.5 C 12 20.570313 13.570313 19 15.5 19 Z M 6 22 C 7.105469 22 8 23.117188 8 24.5 C 8 25.882813 7.105469 27 6 27 C 4.894531 27 4 25.882813 4 24.5 C 4 23.117188 4.894531 22 6 22 Z M 31 28 C 31 28 32.234375 28.5625 33.117188 29.464844 C 33.121094 29.46875 33.125 29.472656 33.132813 29.480469 C 33.21875 29.566406 33.300781 29.65625 33.375 29.75 C 33.773438 30.234375 34.042969 30.796875 33.984375 31.410156 C 33.984375 31.410156 33.988281 31.414063 33.988281 31.414063 C 33.980469 31.5 33.96875 31.589844 33.949219 31.675781 C 33.890625 31.898438 33.78125 32.125 33.640625 32.359375 C 34.871094 32.765625 36.175781 33.269531 37.515625 33.875 C 39.976563 35 42.199219 36.296875 43.648438 37.433594 C 43.453125 37.722656 43.296875 38.054688 43.183594 38.421875 C 41.375 38.070313 38.96875 37.253906 36.488281 36.125 C 35.003906 35.445313 33.441406 34.484375 32.121094 33.597656 C 31.722656 33.753906 31.277344 33.855469 30.796875 33.917969 C 26.667969 34.460938 20 32 20 32 C 20 32 31.863281 32.65625 31.863281 30.34375 C 31.863281 29.191406 31 28 31 28 Z"
     id="path2"
     style="fill:#000000" />
</svg>
