<?xml version="1.0" encoding="UTF-8" standalone="no"?>
<svg
   viewBox="0 0 48 48"
   width="24px"
   height="24px"
   version="1.1"
   id="svg10"
   sodipodi:docname="inskcape-dark.svg"
   inkscape:version="1.2.2 (b0a8486541, 2022-12-01)"
   xmlns:inkscape="http://www.inkscape.org/namespaces/inkscape"
   xmlns:sodipodi="http://sodipodi.sourceforge.net/DTD/sodipodi-0.dtd"
   xmlns="http://www.w3.org/2000/svg"
   xmlns:svg="http://www.w3.org/2000/svg">
  <defs
     id="defs14" />
  <sodipodi:namedview
     id="namedview12"
     pagecolor="#ffffff"
     bordercolor="#000000"
     borderopacity="0.25"
     inkscape:showpageshadow="2"
     inkscape:pageopacity="0.0"
     inkscape:pagecheckerboard="0"
     inkscape:deskcolor="#d1d1d1"
     showgrid="false"
     inkscape:zoom="12.889967"
     inkscape:cx="11.753327"
     inkscape:cy="27.502009"
     inkscape:window-width="1846"
     inkscape:window-height="1016"
     inkscape:window-x="1994"
     inkscape:window-y="27"
     inkscape:window-maximized="1"
     inkscape:current-layer="svg10" />
  <path
     id="path2"
     style="fill:#ffffff"
     d="M 23.736328 2.0039062 C 22.381204 2.0039062 21.04453 2.5043604 20.082031 3.5058594 L 3.9082031 20.332031 C -2.2227907 26.559025 8.0647066 26.058971 11.720703 28.417969 C 13.406701 29.533968 6.7531733 30.975267 8.2011719 32.447266 C 9.6121705 33.928264 16.276501 35.262267 17.6875 36.697266 C 19.098499 38.169264 14.861251 39.736986 16.28125 41.208984 C 17.656249 42.680983 20.704782 41.279956 21.300781 44.626953 C 21.731781 47.104951 27.080799 45.860045 29.591797 43.748047 C 31.158795 42.395048 26.85072 42.395061 28.261719 40.914062 C 29.526717 39.616064 30.735939 39.039593 31.835938 38.683594 C 33.805936 38.034594 36.056626 38.179482 36.890625 36.021484 C 37.596624 34.229486 31.62433 32.82778 33.236328 31.675781 C 37.084324 28.924784 50.790618 27.55554 44.265625 20.935547 L 27.505859 3.5058594 C 26.46586 2.5043604 25.091452 2.0039062 23.736328 2.0039062 z M 23.769531 4 C 24.64953 4 25.51086 4.3299225 26.130859 4.9199219 L 26.769531 5.5898438 L 33.070312 12.130859 C 33.040313 12.230859 32.989453 12.309141 32.939453 12.369141 L 29.890625 9.859375 L 29.289062 13.550781 L 26.779297 12.179688 L 22.689453 14.800781 L 22.289062 13.179688 L 21.339844 9.2890625 L 19.160156 14.080078 L 13.710938 14.039062 C 13.370938 14.039062 13.160547 13.920469 13.060547 13.730469 L 21.560547 4.890625 C 22.110546 4.3206256 22.889532 4 23.769531 4 z M 16.40625 28.960938 C 16.84625 28.961937 31.260791 31.025205 25.716797 32.908203 C 23.590799 33.640202 13.849253 28.960938 16.40625 28.960938 z M 43.328125 33.974609 C 41.910738 33.940288 40.392297 34.68358 40.021484 36.138672 C 40.021484 37.037671 46.334328 37.549826 45.986328 35.923828 C 45.750547 34.639923 44.57876 34.004893 43.328125 33.974609 z M 38.667969 37.984375 C 36.820971 39.888373 38.987924 41.883358 40.794922 40.568359 C 41.277921 40.20536 40.756967 38.437375 38.667969 37.984375 z " />
  <path
     fill="#212121"
     d="M9.552,41.421c1.477,1.555,3.711-0.34,4.43-2.527C12.545,36.61,7.237,39.04,9.552,41.421z"
     id="path4"
     style="fill:#ffffff" />
</svg>
