<?xml version="1.0" encoding="UTF-8" standalone="no"?>
<svg
   viewBox="0 0 50 50"
   width="24px"
   height="24px"
   version="1.1"
   id="svg2648"
   sodipodi:docname="joomla-dark.svg"
   inkscape:version="1.2.2 (b0a8486541, 2022-12-01)"
   xmlns:inkscape="http://www.inkscape.org/namespaces/inkscape"
   xmlns:sodipodi="http://sodipodi.sourceforge.net/DTD/sodipodi-0.dtd"
   xmlns="http://www.w3.org/2000/svg"
   xmlns:svg="http://www.w3.org/2000/svg">
  <defs
     id="defs2652" />
  <sodipodi:namedview
     id="namedview2650"
     pagecolor="#ffffff"
     bordercolor="#000000"
     borderopacity="0.25"
     inkscape:showpageshadow="2"
     inkscape:pageopacity="0.0"
     inkscape:pagecheckerboard="0"
     inkscape:deskcolor="#d1d1d1"
     showgrid="false"
     inkscape:zoom="17.5"
     inkscape:cx="19.285714"
     inkscape:cy="25.057143"
     inkscape:window-width="1846"
     inkscape:window-height="1016"
     inkscape:window-x="1994"
     inkscape:window-y="27"
     inkscape:window-maximized="1"
     inkscape:current-layer="svg2648" />
  <path
     d="M 8.9003906 2.9667969 C 5.7003906 2.9667969 3 5.5652344 3 8.8652344 C 3 11.865234 5.1996094 14.266016 8.0996094 14.666016 C 7.0996094 17.966016 7.9996094 21.665234 10.599609 24.365234 L 11.400391 25.166016 L 15.699219 29.466797 L 19.306641 33 L 23.597656 28.664062 L 14.900391 19.966797 C 13.500391 18.566797 13.500391 16.265234 14.900391 14.865234 C 16.087391 13.678234 17.918734 13.508938 19.302734 14.335938 L 19.386719 14.251953 L 23.642578 9.9941406 C 21.097578 7.8681406 17.734219 7.2384063 14.699219 8.0664062 C 14.299219 5.1654062 11.900391 2.9667969 8.9003906 2.9667969 z M 40.900391 3.0996094 C 37.900391 3.0996094 35.499609 5.2992187 35.099609 8.1992188 C 31.799609 7.1992188 28.100391 8.0992188 25.400391 10.699219 L 24.599609 11.5 L 20.300781 15.800781 L 16.765625 19.40625 L 21.101562 23.697266 L 29.800781 15 C 31.200781 13.6 33.500391 13.6 34.900391 15 C 36.087391 16.187 36.256687 18.018344 35.429688 19.402344 L 35.513672 19.486328 L 39.771484 23.742188 C 41.897484 21.197187 42.527219 17.835781 41.699219 14.800781 C 44.600219 14.400781 46.800781 12 46.800781 9 C 46.800781 5.8 44.200391 3.0996094 40.900391 3.0996094 z M 30.693359 16.966797 L 26.402344 21.300781 L 35.099609 30 C 36.499609 31.4 36.499609 33.699609 35.099609 35.099609 C 33.912609 36.286609 32.081266 36.457859 30.697266 35.630859 L 30.613281 35.714844 L 26.357422 39.970703 C 28.902422 42.096703 32.265781 42.726438 35.300781 41.898438 C 35.700781 44.799437 38.099609 47 41.099609 47 C 44.299609 47 47 44.399609 47 41.099609 C 47 38.099609 44.800391 35.700781 41.900391 35.300781 C 42.900391 32.000781 42.000391 28.299609 39.400391 25.599609 L 38.599609 24.800781 L 34.300781 20.5 L 30.693359 16.966797 z M 10.029297 26.357422 C 7.9022969 28.902422 7.2716094 32.265781 8.0996094 35.300781 C 5.1996094 35.700781 3 38.099609 3 41.099609 C 3 44.299609 5.6003906 47 8.9003906 47 C 11.900391 47 14.299219 44.800391 14.699219 41.900391 C 17.999219 42.900391 21.700391 42.000391 24.400391 39.400391 L 25.199219 38.599609 L 29.5 34.300781 L 33.033203 30.693359 L 28.699219 26.402344 L 20 35.099609 C 18.6 36.499609 16.300391 36.499609 14.900391 35.099609 C 13.713391 33.912609 13.542141 32.081266 14.369141 30.697266 L 14.285156 30.613281 L 10.029297 26.357422 z"
     id="path2646"
     style="fill:#ffffff" />
</svg>
