<?xml version="1.0" encoding="UTF-8" standalone="no"?>
<svg
   viewBox="0 0 30 30"
   width="32px"
   height="32px"
   version="1.1"
   id="svg4"
   sodipodi:docname="linkedin-dark.svg"
   inkscape:version="1.2.2 (b0a8486541, 2022-12-01)"
   xmlns:inkscape="http://www.inkscape.org/namespaces/inkscape"
   xmlns:sodipodi="http://sodipodi.sourceforge.net/DTD/sodipodi-0.dtd"
   xmlns="http://www.w3.org/2000/svg"
   xmlns:svg="http://www.w3.org/2000/svg">
  <defs
     id="defs8" />
  <sodipodi:namedview
     id="namedview6"
     pagecolor="#505050"
     bordercolor="#eeeeee"
     borderopacity="1"
     inkscape:showpageshadow="0"
     inkscape:pageopacity="0"
     inkscape:pagecheckerboard="0"
     inkscape:deskcolor="#505050"
     showgrid="false"
     inkscape:zoom="7.8666667"
     inkscape:cx="15"
     inkscape:cy="15"
     inkscape:window-width="1920"
     inkscape:window-height="1017"
     inkscape:window-x="-8"
     inkscape:window-y="-8"
     inkscape:window-maximized="1"
     inkscape:current-layer="svg4" />
  <path
     d="M 25.664099,1.9661017 H 4.3359014 c -1.3093143,0 -2.3697997,1.0604854 -2.3697997,2.3697997 V 25.664099 c 0,1.309314 1.0604854,2.369799 2.3697997,2.369799 H 25.664099 c 1.309314,0 2.369799,-1.060485 2.369799,-2.369799 V 4.3359014 c 0,-1.3093143 -1.060485,-2.3697997 -2.369799,-2.3697997 z M 10.205895,23.294299 H 6.7104407 V 12.04723 H 10.205895 Z M 8.422621,10.43932 c -1.1268398,0 -2.0380278,-0.9135573 -2.0380278,-2.0380272 0,-1.12447 0.9123729,-2.0368429 2.0380278,-2.0368429 1.123285,0 2.036843,0.9135578 2.036843,2.0368429 0,1.1244699 -0.913558,2.0380272 -2.036843,2.0380272 z m 14.876418,12.854979 h -3.493085 v -5.469498 c 0,-1.304574 -0.0237,-2.982393 -1.816452,-2.982393 -1.818821,0 -2.098457,1.420695 -2.098457,2.887601 v 5.56429 H 12.39796 V 12.04723 h 3.353267 v 1.536815 h 0.04739 c 0.466851,-0.883936 1.606725,-1.816452 3.307056,-1.816452 3.539296,0 4.193361,2.329513 4.193361,5.358117 v 6.168589 z"
     id="path2"
     style="stroke-width:1.1849;fill:#ffffff;fill-opacity:1" />
</svg>
